<svg width="35" height="35" viewBox="0 0 41 41" fill="none" xmlns="http://www.w3.org/2000/svg"><path  d="M10.0731 33.9667C9.90531 33.5716 9.91285 33.2539 10.2362 32.9069C11.3883 31.6709 12.5093 30.4066 13.6369 29.148C13.7633 29.0075 13.9952 28.8981 13.6737 28.6549C10.8689 26.5251 9.41788 23.6891 9.30286 20.1762C9.30612 20.0758 9.28357 19.9763 9.23734 19.8872C9.19112 19.798 9.12278 19.7222 9.03887 19.6671C7.68688 18.7064 6.33207 17.7485 4.98479 16.7783C4.7736 16.6265 4.62464 16.6416 4.40025 16.7689C3.13689 17.4892 1.8707 18.2029 0.578107 18.8666C0.133101 19.092 -0.00549168 19.3795 0.000165175 19.8462C0.0265638 22.2806 0.384831 24.6545 1.25127 26.939C3.22174 32.131 6.76764 35.8598 11.8701 38.3083C11.806 38.1282 11.7834 38.0566 11.7542 37.9877C11.1951 36.6461 10.6388 35.3083 10.0731 33.9667ZM9.31323 26.823C9.22649 28.1213 8.30442 29.2686 7.05049 29.5722C6.28186 29.7699 5.4669 29.6688 4.76983 29.2894C4.63973 29.2196 4.41157 29.1744 4.54356 28.9198C4.67555 28.6652 4.81037 28.7548 4.99799 28.8585C5.51345 29.1512 6.11425 29.2565 6.69851 29.1566C7.28277 29.0568 7.81451 28.7579 8.20354 28.3108C8.99173 27.4349 9.05207 26.0989 8.34779 25.0986C7.43421 23.7985 5.43168 23.6731 4.3682 24.8516C4.28712 24.9459 4.0269 25.0816 4.42194 25.1071C4.56619 25.1156 4.47851 25.2495 4.42194 25.3173C4.11364 25.7256 3.80157 26.131 3.40936 26.6448C3.32357 25.9339 3.25568 25.373 3.17083 24.6649C3.53947 25.0958 3.6988 24.9138 3.90622 24.6574C4.3136 24.1652 4.8658 23.8139 5.48429 23.6536C6.10279 23.4933 6.75607 23.5321 7.35124 23.7645C8.63818 24.2774 9.40374 25.471 9.31323 26.823Z" fill="black"></path><path  d="M32.0828 29.7006C31.1626 28.3712 30.2359 27.0466 29.2799 25.6738C28.8214 26.4011 28.2821 27.0741 27.6724 27.6801C24.3301 30.8989 19.6434 31.6805 15.4262 29.7166C15.1726 29.5987 15.0284 29.6016 14.8323 29.8241C13.7788 31.0183 12.7125 32.2028 11.6333 33.3775C11.4514 33.5736 11.4231 33.7169 11.5183 33.9432C12.1839 35.5246 12.8439 37.1082 13.4982 38.694C13.5327 38.7882 13.5894 38.8727 13.6634 38.9405C13.7374 39.0082 13.8265 39.0572 13.9234 39.0834C16.8848 39.9998 19.9065 40.2958 22.9744 39.8292C28.0391 39.0598 32.2283 36.7179 35.542 32.8033C36.4 31.79 37.1457 30.6868 37.7661 29.5129C36.2632 29.759 34.8113 29.9843 33.3632 30.2361C32.6297 30.3624 32.5137 30.3228 32.0828 29.7006ZM26.0913 31.3033C26.4684 31.1761 26.8587 31.3033 27.234 31.2091C27.5705 31.4448 27.9128 31.672 28.157 32.0133C28.1296 32.1858 28.0354 32.3904 28.338 32.413C28.338 32.4517 28.3436 32.4913 28.3474 32.5299L28.1523 33.7848L28.1626 33.8206C28.1082 33.8338 28.0573 33.8588 28.0138 33.8941C27.9703 33.9293 27.9351 33.9738 27.9109 34.0243L27.8996 34.0149C27.4782 33.6924 27.035 33.3945 27.0973 32.7515C27.1046 32.6549 27.0793 32.5586 27.0252 32.4782C26.9712 32.3978 26.8916 32.338 26.7993 32.3084C26.3421 32.1764 25.8867 31.9246 25.3993 32.2141C25.3482 32.2421 25.2927 32.2612 25.2352 32.2707C25.2224 32.2359 25.2201 32.1982 25.2286 32.1622C25.3295 31.6965 25.6614 31.4523 26.0913 31.3043V31.3033ZM25.0391 32.3348C25.1334 32.3508 25.2277 32.4884 25.3314 32.348C25.7085 32.1198 26.08 32.2537 26.4741 32.3178C26.8512 32.3744 27.0511 32.545 27.0011 32.8731C26.8898 33.5953 27.4725 33.7876 27.8722 34.128H27.9882C27.399 34.9435 26.4514 35.0463 25.552 34.3929C25.667 34.375 25.8094 34.3995 25.8433 34.244C25.849 34.2204 25.7585 34.1497 25.7047 34.1431C25.4992 34.1025 25.5322 34.2524 25.5331 34.3741C24.9627 33.7942 24.8081 33.1107 25.0391 32.3348ZM18.5007 31.7879C20.1978 31.7879 21.8926 31.7879 23.5853 31.7879C23.9709 31.7879 24.1566 31.9529 24.151 32.3536C24.1387 33.4492 24.1444 34.5457 24.151 35.6421C24.151 35.8439 24.1152 36.0136 23.9275 36.1211C23.8333 36.1352 23.739 36.1588 23.6522 36.1692C23.5584 36.1577 23.4639 36.1521 23.3694 36.1522C21.7842 36.1572 20.1997 36.1572 18.6158 36.1522C18.5128 36.1501 18.4097 36.1551 18.3075 36.1673C18.2262 36.1557 18.1469 36.1332 18.0718 36.1003C17.9077 35.9693 17.8832 35.7939 17.8832 35.5959C17.8888 34.5315 17.8983 33.4661 17.8832 32.4027C17.869 31.9539 18.0831 31.7879 18.5007 31.7879ZM27.9034 37.9162C27.0237 38.2877 26.0979 38.5139 25.1758 38.7496C24.893 38.8222 24.7808 38.776 24.8213 38.4574C24.8468 38.2688 24.892 38.0604 24.7827 37.8021C24.3914 38.1406 24.002 38.4442 23.6513 38.7892C23.4222 39.0174 23.2572 38.991 23.0187 38.8175C22.5048 38.4404 22.0146 38.0312 21.3791 37.8436C21.2063 37.7832 21.0256 37.7485 20.8427 37.7408C19.7745 37.7408 18.7072 37.7465 17.6371 37.7361C17.4486 37.7361 17.2034 37.7974 17.0922 37.5664C16.9809 37.3354 17.177 37.1817 17.3005 37.0356C17.5183 36.7773 17.6211 36.4171 17.9699 36.2729H24.0982C24.1416 36.2616 24.2123 36.2644 24.2245 36.238C24.6101 35.4517 25.3832 35.3093 26.1101 35.1858C26.8163 35.0661 27.5394 35.084 28.2258 35.4055C28.5558 35.5601 28.7132 35.7694 28.7019 36.1249C28.6972 36.2814 28.7113 36.4388 28.7217 36.5963C28.7915 37.491 28.7538 37.5608 27.9052 37.919L27.9034 37.9162Z" fill="black"></path><path  d="M5.26964 15.3088C6.53489 16.229 7.82088 17.1199 9.07859 18.0495C9.38877 18.2786 9.44534 18.2569 9.52831 17.8845C10.3156 14.3462 12.3746 11.81 15.6396 10.2402C15.8036 10.162 15.9337 10.0837 15.9988 9.90272C16.5217 8.44954 17.0507 6.99855 17.5855 5.54977C17.6591 5.35084 17.6647 5.21319 17.5016 5.05008C16.2527 3.80181 15.0098 2.54724 13.7728 1.28639C13.6286 1.13931 13.5041 1.12423 13.3175 1.19211C11.4459 1.86677 9.68377 2.81311 8.0877 4.00074C5.01225 6.31156 2.75423 9.24841 1.3551 12.8292C0.760178 14.3505 0.362535 15.9417 0.171875 17.564C1.56723 16.789 2.87868 16.0659 4.18447 15.3324C4.54934 15.1315 4.88403 15.0288 5.26964 15.3088ZM7.33911 12.5124C7.79637 11.5385 8.23477 10.5561 8.67507 9.57368C8.74955 9.40775 8.82592 9.22767 9.04276 9.31818C9.24075 9.39832 9.33503 9.41906 9.42931 9.18147C9.52359 8.94388 9.59619 8.80435 9.36709 8.58467C8.15463 7.40333 8.45822 5.45455 9.93843 4.78515C10.3726 4.58052 10.8584 4.51173 11.3322 4.58776C11.8061 4.6638 12.246 4.88113 12.5943 5.2113C13.2901 5.87127 13.4853 6.90836 13.0912 7.85117C12.7273 8.71384 11.8382 9.25124 10.8284 9.21918C10.5777 9.2107 10.3071 9.09662 10.1807 9.47091C10.1091 9.6821 10.0685 9.80655 10.3174 9.89895C10.5418 9.98192 10.5569 10.1403 10.4589 10.3524C10.0063 11.3292 9.56193 12.3097 9.12573 13.294C9.02013 13.5306 8.89003 13.5882 8.65432 13.4712C8.2772 13.2874 7.88405 13.13 7.49938 12.9565C7.29197 12.8688 7.23068 12.7443 7.33911 12.5124Z" fill="black"></path><path  d="M37.8625 10.7145C37.2779 9.58418 36.5737 8.51993 35.7619 7.54004C35.6978 7.63432 35.6497 7.69466 35.6139 7.76066C34.7823 9.29743 33.9526 10.8352 33.1248 12.3738C32.9363 12.7283 32.677 12.9122 32.2612 12.8763C31.8454 12.8405 31.4127 12.8283 30.9932 12.8075C30.0173 12.7604 29.0406 12.7132 28.0195 12.667C28.0429 12.7326 28.0726 12.7957 28.1082 12.8556C30.9416 16.1686 31.6145 19.872 30.1267 23.9656C30.039 24.207 30.0239 24.3777 30.1823 24.602C31.1251 25.9427 32.0582 27.2919 32.9815 28.6495C33.1201 28.8532 33.2766 28.8852 33.4991 28.8485C35.0441 28.5914 36.5903 28.34 38.1378 28.0942C38.2526 28.086 38.3625 28.0438 38.4534 27.9732C38.5444 27.9026 38.6123 27.8065 38.6488 27.6973C39.4407 25.8087 39.9297 23.807 40.0978 21.7661C40.408 17.8657 39.6924 14.1774 37.8625 10.7145ZM38.8515 19.327C38.7864 21.1957 37.2619 22.6617 35.4489 22.6005C33.5463 22.5363 32.0953 21.009 32.1707 19.1517C32.1837 18.7132 32.2835 18.2817 32.4644 17.882C32.6452 17.4824 32.9035 17.1226 33.2243 16.8234C33.5452 16.5242 33.9221 16.2917 34.3334 16.1391C34.7447 15.9866 35.1821 15.9172 35.6205 15.9348C37.4674 16.0083 38.9146 17.5272 38.8515 19.327Z" fill="black"></path><path  d="M18.737 4.38377C19.1094 4.73167 19.2226 5.06259 19.0199 5.57925C18.5004 6.8775 18.0535 8.20592 17.5585 9.57582C20.6632 8.92151 23.4831 9.38726 26.0758 11.0975C26.2205 11.1893 26.3882 11.238 26.5595 11.238C28.2971 11.3153 30.0356 11.3907 31.7714 11.4907C32.008 11.5039 32.1042 11.436 32.205 11.2474C33.0221 9.72258 33.8458 8.20183 34.6761 6.68517C34.7874 6.48152 34.7704 6.35424 34.6139 6.20811C34.2038 5.8225 33.8125 5.41332 33.3883 5.04657C28.8128 1.11317 23.518 -0.472634 17.5378 0.194874C16.7251 0.289155 15.9124 0.415491 15.0469 0.783187C16.2424 2.02675 17.4831 3.21092 18.737 4.38377ZM25.2292 3.61727C26.3757 3.30426 27.4608 3.5541 28.5601 3.79452C28.6987 3.82374 28.8128 3.869 28.8128 4.06416C28.8128 4.92306 28.8298 5.78196 28.662 6.63143C28.5366 7.26782 28.1378 7.71283 27.6626 8.11352C27.2808 8.43408 26.9329 8.96865 26.4803 8.97902C26.0278 8.98939 25.7044 8.41334 25.3027 8.12107C24.194 7.31874 24.2204 6.12325 24.1601 5.04374C24.1563 3.85391 24.1695 3.90294 25.2292 3.61444V3.61727Z" fill="black"></path><path  d="M18.5463 36.6399C18.006 36.6164 17.8354 36.9228 17.6289 37.3376H20.3187C20.7439 37.3376 21.2021 37.4442 21.4407 36.92C21.484 36.8257 21.6292 36.7748 21.7876 36.6541C20.6468 36.6541 19.5965 36.6861 18.5463 36.6399Z" fill="black"></path><path  d="M23.6441 36.6507C23.1143 36.661 22.5835 36.6507 21.9961 36.6507C22.2148 37.1277 22.5231 37.3229 22.9983 37.3484C23.3839 37.3682 23.6026 37.2248 23.7742 36.9071C23.8742 36.7223 23.9072 36.645 23.6441 36.6507Z" fill="black"></path><path  d="M18.6661 35.8126C19.4496 35.7956 20.2331 35.8069 21.0165 35.8069C21.8311 35.8069 22.6467 35.7985 23.4612 35.8069C23.7064 35.8117 23.7837 35.7362 23.7809 35.4902C23.7689 34.5046 23.7689 33.5194 23.7809 32.5344C23.7809 32.2686 23.6969 32.1847 23.4311 32.1866C21.8333 32.196 20.235 32.196 18.6359 32.1866C18.3588 32.1866 18.2485 32.2648 18.2541 32.559C18.2692 33.5131 18.272 34.4672 18.2541 35.4204C18.2494 35.7494 18.3748 35.8183 18.6661 35.8126ZM20.2519 35.1526C19.7362 35.1573 19.2205 35.1526 18.7048 35.1573C18.5982 35.1573 18.5285 35.1187 18.5256 34.998C18.5256 34.8434 18.6199 34.8217 18.7406 34.8208H19.4948C19.7456 34.8208 19.9955 34.8208 20.2491 34.8208C20.3519 34.8208 20.4377 34.8566 20.4377 34.9773C20.4401 35.0015 20.4369 35.026 20.4284 35.0488C20.42 35.0717 20.4064 35.0923 20.3888 35.1091C20.3711 35.1259 20.3499 35.1385 20.3267 35.1459C20.3035 35.1533 20.2789 35.1552 20.2548 35.1517L20.2519 35.1526ZM20.4971 34.422C19.9175 34.422 19.338 34.422 18.7585 34.422C18.6473 34.422 18.5379 34.422 18.5266 34.2645C18.5134 34.0759 18.651 34.1184 18.7481 34.1165C19.0451 34.1108 19.3431 34.1165 19.641 34.1165C19.9238 34.1165 20.2067 34.1165 20.4895 34.1165C20.6036 34.1165 20.7167 34.125 20.7035 34.2862C20.6932 34.4163 20.5932 34.421 20.4999 34.421L20.4971 34.422ZM21.8472 33.3915C21.9839 33.4961 22.1045 33.4009 22.3252 33.4047C22.1837 33.5847 22.1649 33.7988 21.9301 33.7318C21.8358 33.7045 21.7161 33.6441 21.7067 33.5216C21.7048 33.4471 21.7774 33.3358 21.85 33.3905L21.8472 33.3915ZM21.0797 33.3622C21.2353 33.3622 21.305 33.4122 21.3013 33.5725C21.2975 33.7328 21.2136 33.7526 21.0891 33.7526C20.3066 33.7526 19.5231 33.7526 18.7406 33.7526C18.5766 33.7526 18.5294 33.6856 18.5238 33.531C18.5172 33.3189 18.6661 33.3651 18.7774 33.3641C19.1686 33.3585 19.5608 33.3641 19.9521 33.3641C20.3302 33.3632 20.7064 33.3679 21.0825 33.3613L21.0797 33.3622ZM18.5134 32.8107C18.5313 32.6344 18.6444 32.6316 18.7793 32.6334C19.0621 32.6334 19.3449 32.6334 19.6278 32.6334C19.8937 32.6334 20.1595 32.6334 20.4254 32.6334C20.5508 32.6334 20.6903 32.6231 20.696 32.806C20.7016 32.9889 20.5791 33.0002 20.4433 33.0002H18.7529C18.6218 33.0011 18.4974 33.003 18.5162 32.8097L18.5134 32.8107Z" fill="black"></path><path  d="M25.8336 33.1057C25.8621 33.1064 25.8904 33.1012 25.9168 33.0904C25.9432 33.0796 25.967 33.0635 25.9869 33.0431C26.0067 33.0226 26.0221 32.9983 26.0321 32.9716C26.042 32.9449 26.0464 32.9164 26.0448 32.8879C26.0146 32.7635 25.943 32.6617 25.795 32.6683C25.7672 32.6675 25.7396 32.6726 25.7139 32.6833C25.6883 32.694 25.6652 32.7101 25.6463 32.7305C25.6274 32.7508 25.613 32.775 25.6042 32.8013C25.5954 32.8277 25.5923 32.8556 25.5951 32.8832C25.5914 32.9148 25.5953 32.9467 25.6062 32.9765C25.6172 33.0063 25.635 33.033 25.6582 33.0547C25.6814 33.0763 25.7094 33.0922 25.7398 33.1011C25.7703 33.11 25.8024 33.1116 25.8336 33.1057Z" fill="black"></path><path  d="M10.97 8.72093C11.9486 8.70962 12.7821 7.86297 12.7859 6.87585C12.7859 5.91325 11.9157 5.05623 10.9389 5.06849C10.6962 5.07276 10.4568 5.12504 10.2345 5.22231C10.0121 5.31958 9.81123 5.45991 9.64338 5.63521C9.47553 5.8105 9.34405 6.0173 9.25653 6.24367C9.169 6.47003 9.12716 6.71149 9.13342 6.95411C9.15039 7.8988 10.0178 8.73319 10.97 8.72093Z" fill="black"></path><path  d="M38.0176 20.3309C37.8762 20.2837 37.7008 20.0876 37.5415 20.3657C37.3601 20.7053 37.0946 20.9925 36.7704 21.2C36.4462 21.4075 36.0741 21.5283 35.6898 21.5509C35.4598 21.5707 35.424 21.696 35.4258 21.8978C35.4258 22.1505 35.5739 22.1269 35.7181 22.1033C36.6091 22.0826 37.5726 21.4792 38.0139 20.6599C38.0629 20.5684 38.2609 20.411 38.0176 20.3309Z" fill="black"></path><path  d="M33.2362 19.53C33.1881 19.1955 33.2175 18.8544 33.3223 18.5332C33.4271 18.2119 33.6044 17.9191 33.8405 17.6774C34.0291 17.4728 33.8198 17.3691 33.734 17.2427C33.5832 17.0193 33.4927 17.2361 33.4172 17.3153C32.8977 17.8603 32.6583 18.5221 32.6328 19.3546C32.64 19.4341 32.6517 19.5131 32.6677 19.5913C32.6941 19.7091 32.6243 19.9203 32.8713 19.8552C33.041 19.8138 33.273 19.8119 33.2362 19.53Z" fill="black"></path><path  d="M37.697 17.4272C37.6112 17.3329 37.5499 17.0096 37.2868 17.2387C37.0917 17.4121 37.0606 17.5724 37.2623 17.7836C37.6724 18.2126 37.8007 18.7538 37.8139 19.36C37.6922 19.6645 37.8403 19.8804 38.1627 19.87C38.4851 19.8597 38.3729 19.5335 38.3777 19.3581C38.4066 18.651 38.163 17.9598 37.697 17.4272Z" fill="black"></path><path  d="M34.5068 17.194C35.1733 16.8904 35.8333 16.9112 36.5008 17.1855C36.8298 17.3213 36.8034 16.9649 36.9892 16.8423C36.91 16.7845 36.8272 16.7319 36.7412 16.6849C36.3615 16.4993 35.9445 16.4024 35.5219 16.4014C35.0992 16.4004 34.6818 16.4954 34.3012 16.6792C34.2145 16.7188 33.992 16.7311 34.1061 16.9102C34.189 17.0432 34.2428 17.3137 34.5068 17.194Z" fill="black"></path><path  d="M34.7634 21.4366C34.487 21.3512 34.2308 21.2107 34.0103 21.0236C33.7898 20.8364 33.6094 20.6065 33.4802 20.3477C33.352 20.095 33.1833 20.2939 33.0362 20.3147C32.8203 20.3458 32.9089 20.4919 32.9645 20.5919C33.1445 20.9293 33.3893 21.2279 33.6849 21.4706C33.9805 21.7132 34.321 21.8952 34.687 22.0061C34.8879 22.0683 34.9878 22.0221 34.9699 21.7298C34.9906 21.6308 34.9501 21.4998 34.7634 21.4366Z" fill="black"></path><path  d="M35.7132 21.0719C36.3534 21.0031 36.8069 20.6693 37.1548 20.0565C36.9238 20.032 36.74 19.7888 36.5599 19.9962C36.326 20.2924 35.9857 20.4855 35.6114 20.5345C35.3748 20.5628 35.4342 20.7448 35.4285 20.8937C35.421 21.1162 35.5662 21.087 35.7132 21.0719Z" fill="black"></path><path  d="M35.8892 18.0543C36.1645 18.1194 36.2616 17.8922 36.3116 17.7234C36.371 17.5188 36.123 17.5697 36.0174 17.5235C35.8642 17.4726 35.7063 17.4369 35.546 17.417C35.3672 17.4298 35.1897 17.4569 35.0152 17.4981C34.8898 17.5377 34.6457 17.5264 34.7154 17.7451C34.7626 17.8969 34.8521 18.1128 35.1048 18.0581C35.3626 17.9975 35.6308 17.9962 35.8892 18.0543Z" fill="black"></path><path  d="M37.0156 18.2301C36.944 18.1358 36.8639 17.9236 36.7328 18.0321C36.6018 18.1405 36.367 18.2866 36.5442 18.528C36.6929 18.7475 36.7742 19.0058 36.7781 19.2709C36.795 19.5358 37.0157 19.5406 37.1891 19.5443C37.3975 19.5443 37.3409 19.3558 37.3551 19.2568C37.347 18.8883 37.2288 18.5307 37.0156 18.2301Z" fill="black"></path><path  d="M34.234 17.9648C33.9048 18.2642 33.7055 18.6803 33.6787 19.1245C33.6636 19.2782 33.5797 19.5252 33.821 19.5346C33.9945 19.5412 34.2783 19.5233 34.2519 19.1858C34.2309 19.0138 34.2761 18.8402 34.3782 18.7002C34.6281 18.3901 34.4697 18.1807 34.234 17.9648Z" fill="black"></path><path  d="M33.9068 20.0648C33.8229 20.1506 33.9804 20.2703 34.0492 20.3665C34.212 20.5936 34.4288 20.7767 34.6799 20.8992C34.9288 21.0246 34.9835 20.9218 34.9628 20.687C34.9364 20.2863 34.596 20.1213 34.3217 19.9328C34.2453 19.88 34.0002 19.9686 33.9068 20.0648Z" fill="black"></path><path  d="M35.4661 19.993C35.7225 20.157 35.9092 19.9374 36.1138 19.7535C35.8818 19.7139 35.698 19.4245 35.4538 19.613C35.3727 19.6743 35.3623 19.927 35.4661 19.993Z" fill="black"></path><path  d="M34.876 18.8575C34.7421 18.8632 34.7392 19.0122 34.7063 19.1112C34.6733 19.2101 34.7157 19.2592 34.8232 19.2488C34.8797 19.1602 35.0749 19.2611 35.0589 19.0932C35.0494 18.9924 35.0061 18.8528 34.876 18.8575Z" fill="black"></path><path  d="M36.112 18.8672C36.0243 18.8672 35.9461 18.985 35.9536 19.0727C35.9706 19.2556 36.1337 19.2349 36.3308 19.2613C36.2525 19.0916 36.3534 18.8719 36.112 18.8672Z" fill="black"></path><path  d="M35.5221 18.7871C35.6249 18.7757 35.6513 18.6711 35.6993 18.5985C35.688 18.4712 35.5871 18.458 35.5004 18.4656C35.4137 18.4731 35.2958 18.4806 35.3364 18.6183C35.3618 18.6994 35.4071 18.8003 35.5221 18.7871Z" fill="black"></path><path  d="M22.6923 21.7812C22.516 21.7812 22.4453 21.951 22.4453 22.1159C22.4453 22.3045 22.5396 22.4497 22.6904 22.4497C22.8413 22.4497 22.9318 22.3102 22.9318 22.1112C22.9318 21.9576 22.863 21.7812 22.6923 21.7812Z" fill="black"></path><path  d="M20.1227 21.7695C20.0606 21.7736 20.0024 21.8013 19.96 21.8468C19.9176 21.8924 19.8942 21.9524 19.8945 22.0147H20.3282C20.3329 21.9847 20.3312 21.9541 20.3231 21.9249C20.315 21.8957 20.3007 21.8686 20.2812 21.8453C20.2618 21.8221 20.2375 21.8033 20.2102 21.7902C20.1828 21.7772 20.153 21.7701 20.1227 21.7695Z" fill="black"></path><path  d="M17.145 22.31C17.1434 22.3291 17.146 22.3483 17.1526 22.3663C17.1592 22.3843 17.1696 22.4006 17.1832 22.4142C17.1967 22.4277 17.2131 22.4382 17.2311 22.4448C17.249 22.4514 17.2682 22.454 17.2873 22.4524C17.33 22.4531 17.3718 22.4402 17.4067 22.4157C17.4416 22.3911 17.4678 22.3561 17.4816 22.3157C17.4871 22.298 17.4899 22.2796 17.49 22.261V22.1252C17.3137 22.1215 17.145 22.1601 17.145 22.31Z" fill="black"></path><path  d="M27.4126 14.3942C26.5801 14.2518 25.7532 14.0642 24.916 13.9614C22.7212 13.6927 20.5527 13.1421 18.29 13.5155C16.4223 13.8247 14.5376 14.0368 12.6774 14.4093C12.3795 14.4687 12.2588 14.5733 12.2748 14.8929C12.3022 15.4718 12.2824 16.0526 12.2824 16.6315C12.3239 18.0042 12.3908 19.3722 12.6124 20.7327C12.8858 22.4062 13.591 23.7911 14.9882 24.8254C16.4967 25.9426 18.0854 26.942 19.6721 27.9442C19.955 28.1243 20.1567 28.1281 20.4264 27.9602C21.7783 27.1334 23.0983 26.267 24.4182 25.3901C26.219 24.189 27.3579 22.6371 27.6238 20.4281C27.8472 18.5906 27.8623 16.7587 27.8783 14.9184C27.8812 14.5412 27.718 14.446 27.4126 14.3942ZM23.1633 19.9105H23.169C23.186 19.853 23.2039 19.7804 23.2218 19.7154L23.3811 19.1865H23.6489L23.4009 19.8596C23.2652 20.2283 23.1737 20.3923 23.0568 20.4941C22.984 20.5617 22.8928 20.606 22.7947 20.6214L22.7381 20.4112C22.7906 20.3973 22.8401 20.3739 22.8843 20.3423C22.9413 20.3017 22.9878 20.248 23.02 20.1858C23.029 20.1727 23.0345 20.1574 23.0361 20.1415C23.0354 20.1243 23.0306 20.1074 23.0219 20.0925L22.6561 19.1865H22.9305L23.1087 19.7154C23.1285 19.7785 23.1492 19.853 23.1633 19.9105ZM21.4861 15.8367H22.9512V16.1987H22.4308V17.743H21.998V16.1987H21.4861V15.8367ZM21.653 19.0469C21.635 19.0478 21.617 19.045 21.6001 19.0387C21.5832 19.0323 21.5679 19.0226 21.555 19.01C21.542 18.9974 21.5318 18.9823 21.525 18.9657C21.5182 18.949 21.5149 18.9311 21.5153 18.9131C21.5142 18.8852 21.5214 18.8576 21.5362 18.8339C21.5509 18.8101 21.5724 18.7914 21.5978 18.78C21.6233 18.7686 21.6517 18.7651 21.6791 18.77C21.7066 18.7749 21.732 18.7879 21.752 18.8074C21.772 18.8268 21.7857 18.8519 21.7914 18.8792C21.797 18.9065 21.7943 18.9349 21.7837 18.9607C21.773 18.9865 21.7548 19.0085 21.7315 19.0239C21.7082 19.0393 21.6809 19.0473 21.653 19.0469ZM21.7783 19.1865V20.1736H21.5276V19.1865H21.7783ZM20.7978 19.1865H21.0147L21.0222 19.375H21.0307C21.048 19.3162 21.0833 19.2642 21.1317 19.2265C21.1801 19.1888 21.2391 19.1672 21.3003 19.1648C21.32 19.1646 21.3396 19.1665 21.3588 19.1704V19.4052C21.3349 19.4003 21.3106 19.3977 21.2862 19.3977C21.2324 19.3964 21.1799 19.4149 21.1388 19.4496C21.0976 19.4843 21.0706 19.5329 21.0628 19.5862C21.058 19.6117 21.0555 19.6376 21.0552 19.6635V20.1736H20.8073V19.507C20.8073 19.375 20.8054 19.2807 20.7997 19.1865H20.7978ZM19.2959 15.8348H19.7277V17.7411H19.2959V15.8348ZM17.3443 15.8348H17.8478L18.2428 16.5334C18.3611 16.744 18.465 16.9622 18.5539 17.1868H18.5624C18.5353 16.9227 18.523 16.6574 18.5257 16.392V15.8348H18.9216V17.7411H18.4691L18.0618 17.0057C17.9396 16.7875 17.8295 16.5628 17.7318 16.3326H17.7233C17.7337 16.5843 17.7403 16.853 17.7403 17.1641V17.7383H17.3471L17.3443 15.8348ZM16.9672 19.5758C16.7428 19.4948 16.5986 19.375 16.5986 19.1789C16.5986 18.9555 16.7871 18.7858 17.0813 18.7858C17.1945 18.7824 17.307 18.806 17.4094 18.8546L17.349 19.0554C17.2649 19.0118 17.1713 18.9895 17.0766 18.9904C16.9191 18.9904 16.8503 19.0752 16.8503 19.1544C16.8503 19.26 16.9295 19.3081 17.1114 19.3797C17.349 19.4684 17.4641 19.5881 17.4641 19.7851C17.4641 20.0039 17.2981 20.1943 16.9455 20.1943C16.8174 20.1953 16.6908 20.1663 16.5759 20.1095L16.6306 19.9021C16.7317 19.9588 16.8456 19.989 16.9615 19.9897C17.1218 19.9897 17.2104 19.9143 17.2104 19.8012C17.2104 19.688 17.1473 19.6409 16.97 19.5777L16.9672 19.5758ZM16.0734 21.4492H15.5351V21.8263H16.0376V22.0309H15.5351V22.6107H15.2852V21.2427H16.0734V21.4492ZM16.8163 21.8424C16.7921 21.8374 16.7675 21.8349 16.7428 21.8348C16.689 21.8332 16.6364 21.8515 16.5953 21.8864C16.5542 21.9212 16.5275 21.97 16.5203 22.0234C16.5148 22.0485 16.5119 22.0741 16.5118 22.0997V22.6107H16.2629V21.9423C16.2629 21.8084 16.2629 21.7132 16.2544 21.6236H16.4713L16.4798 21.8122H16.4873C16.5047 21.7533 16.54 21.7013 16.5884 21.6635C16.6367 21.6256 16.6956 21.6038 16.757 21.601C16.7769 21.6011 16.7968 21.6033 16.8163 21.6076V21.8424ZM17.5216 22.6107L17.5055 22.5014H17.4989C17.4636 22.5441 17.419 22.5781 17.3685 22.601C17.318 22.6239 17.263 22.6349 17.2076 22.6334C17.1676 22.6357 17.1276 22.6298 17.09 22.616C17.0523 22.6023 17.0179 22.581 16.9889 22.5534C16.9598 22.5258 16.9367 22.4926 16.921 22.4558C16.9052 22.4189 16.8972 22.3793 16.8974 22.3392C16.8974 22.0903 17.118 21.9621 17.4829 21.9621V21.9461C17.4829 21.881 17.4565 21.7735 17.2821 21.7735C17.1888 21.774 17.0973 21.7994 17.0172 21.8471L16.9681 21.6849C17.0775 21.6249 17.2007 21.5947 17.3255 21.5972C17.6413 21.5972 17.7328 21.798 17.7328 22.013V22.3703C17.7314 22.4495 17.7361 22.5286 17.7469 22.607L17.5216 22.6107ZM17.6347 19.6994C17.6347 19.4259 17.8006 19.1686 18.1165 19.1686C18.4323 19.1686 18.5426 19.4316 18.5426 19.6484C18.5427 19.6838 18.5399 19.7191 18.5341 19.754H17.8742C17.8808 19.9322 18.0203 20.0095 18.1787 20.0095C18.2718 20.012 18.3646 19.997 18.4521 19.9652L18.4889 20.1368C18.3788 20.1791 18.2617 20.1999 18.1438 20.1981C17.8233 20.1962 17.6347 19.9992 17.6347 19.6975V19.6994ZM19.4515 22.6107H19.2083V22.0658C19.2083 21.9018 19.1517 21.8037 19.0319 21.8037C18.9928 21.8048 18.9549 21.8182 18.9236 21.8418C18.8924 21.8655 18.8693 21.8983 18.8575 21.9357C18.8504 21.9628 18.8463 21.9906 18.8453 22.0187V22.6107H18.602V22.0394C18.602 21.9018 18.5473 21.8037 18.4323 21.8037C18.3913 21.8057 18.352 21.8205 18.3198 21.846C18.2877 21.8716 18.2644 21.9066 18.2532 21.9461C18.2436 21.972 18.2388 21.9995 18.239 22.0271V22.6107H17.9958V21.9206C17.9958 21.8065 17.9958 21.7113 17.9883 21.6265H18.2032L18.2126 21.7726H18.2192C18.2501 21.7199 18.2946 21.6764 18.348 21.6467C18.4014 21.617 18.4618 21.6022 18.5228 21.6038C18.5819 21.6018 18.6402 21.6184 18.6894 21.6512C18.7386 21.684 18.7763 21.7314 18.7972 21.7867C18.8276 21.7367 18.8692 21.6944 18.9188 21.6632C18.977 21.6225 19.0468 21.6017 19.1177 21.6038C19.2818 21.6038 19.4477 21.716 19.4477 22.0319L19.4515 22.6107ZM19.2384 20.0011C19.3058 20.0021 19.3726 19.9889 19.4345 19.9624L19.4694 20.151C19.3795 20.1868 19.2833 20.2041 19.1866 20.2019C19.1189 20.2075 19.0507 20.1984 18.9869 20.1752C18.923 20.152 18.8649 20.1153 18.8166 20.0676C18.7682 20.0198 18.7308 19.9622 18.7067 19.8987C18.6827 19.8351 18.6727 19.7671 18.6775 19.6994C18.6775 19.4033 18.8802 19.1723 19.2271 19.1723C19.3098 19.1715 19.3919 19.1872 19.4685 19.2185L19.4242 19.4071C19.3648 19.3807 19.3005 19.3676 19.2356 19.3684C19.154 19.3729 19.0771 19.4084 19.0209 19.4678C18.9647 19.5272 18.9333 19.6058 18.9333 19.6876C18.9333 19.7693 18.9647 19.848 19.0209 19.9073C19.0771 19.9667 19.154 20.0023 19.2356 20.0067L19.2384 20.0011ZM19.6495 19.1902H19.8993V19.7276C19.8993 19.8917 19.9521 19.9973 20.0879 19.9973C20.129 19.996 20.1688 19.9826 20.2023 19.9587C20.2359 19.9349 20.2617 19.9018 20.2765 19.8634C20.2857 19.8387 20.2905 19.8125 20.2906 19.7861V19.1865H20.5404V19.8775C20.5404 19.9954 20.5404 20.0925 20.5489 20.1736H20.3264L20.3142 20.0237C20.2816 20.0779 20.2351 20.1224 20.1796 20.1527C20.1241 20.1831 20.0615 20.1981 19.9983 20.1962C19.8173 20.1962 19.6533 20.0887 19.6533 19.7663L19.6495 19.1902ZM20.5527 22.1855H19.8927C19.8993 22.3637 20.0389 22.441 20.1973 22.441C20.2904 22.4432 20.3832 22.4278 20.4707 22.3958L20.5074 22.5683C20.3974 22.6106 20.2803 22.6314 20.1624 22.6296C19.8418 22.6296 19.6542 22.4326 19.6542 22.1309C19.6542 21.8565 19.8201 21.5991 20.136 21.5991C20.4518 21.5991 20.5621 21.8631 20.5621 22.0799C20.5619 22.1153 20.5587 22.1507 20.5527 22.1855ZM20.0294 17.6553L20.1171 17.299C20.2654 17.3742 20.4289 17.4148 20.5951 17.4178C20.7931 17.4178 20.8978 17.3357 20.8978 17.2113C20.8978 17.0868 20.8035 17.0227 20.5782 16.9426C20.2614 16.8323 20.0549 16.6597 20.0549 16.3769C20.0549 16.0516 20.3264 15.8027 20.7761 15.8027C20.9432 15.799 21.1091 15.8312 21.2626 15.897L21.1684 16.2449C21.0444 16.1834 20.9079 16.1512 20.7695 16.1506C20.581 16.1506 20.4924 16.2355 20.4924 16.3392C20.4924 16.4608 20.5998 16.5145 20.8459 16.6079C21.1825 16.7323 21.3409 16.9077 21.3409 17.1736C21.3409 17.4932 21.0948 17.7647 20.5716 17.7647C20.3849 17.7693 20.1997 17.7319 20.0294 17.6553ZM21.8038 22.6089H21.5728L21.455 22.2035C21.4242 22.0997 21.3994 21.9942 21.3805 21.8876H21.3758C21.3577 21.9944 21.3329 22.0999 21.3013 22.2035L21.175 22.6051H20.9421L20.647 21.6217H20.9025L21.0052 22.0696C21.0279 22.1752 21.0496 22.2826 21.0684 22.3901C21.0892 22.2826 21.1212 22.1733 21.1495 22.0715L21.2777 21.6217H21.4804L21.6039 22.0592C21.6341 22.1752 21.6605 22.2826 21.6831 22.3901C21.6992 22.2826 21.7218 22.1752 21.7482 22.0592L21.8575 21.6217H22.1027L21.8038 22.6089ZM22.0866 19.8389V19.375H21.9452V19.1865H22.0866V18.964L22.3299 18.9046V19.1874H22.5675V19.376H22.3299V19.8115C22.3299 19.9313 22.3629 19.9945 22.4581 19.9945C22.4899 19.9943 22.5216 19.9901 22.5524 19.9822V20.1708C22.4942 20.189 22.4333 20.1973 22.3723 20.1953C22.3328 20.1972 22.2934 20.191 22.2564 20.1771C22.2194 20.1631 22.1857 20.1417 22.1574 20.1142C22.1016 20.0339 22.0777 19.9358 22.0904 19.8389H22.0866ZM22.6759 22.6315C22.6091 22.6339 22.5425 22.6222 22.4805 22.5973C22.4185 22.5723 22.3624 22.5346 22.3158 22.4867C22.2692 22.4387 22.2333 22.3815 22.2102 22.3187C22.1871 22.256 22.1775 22.1891 22.1819 22.1224C22.1767 22.0535 22.1863 21.9842 22.2099 21.9193C22.2335 21.8544 22.2707 21.7952 22.3189 21.7457C22.3671 21.6962 22.4253 21.6576 22.4896 21.6323C22.554 21.607 22.6229 21.5957 22.6919 21.5991C22.7586 21.5961 22.8252 21.6073 22.8872 21.632C22.9492 21.6566 23.0053 21.6941 23.0518 21.7421C23.0982 21.7901 23.1339 21.8473 23.1566 21.9101C23.1792 21.9729 23.1883 22.0398 23.1831 22.1063C23.1882 22.1748 23.1788 22.2435 23.1556 22.308C23.1324 22.3726 23.0958 22.4315 23.0484 22.481C23.0009 22.5306 22.9435 22.5695 22.88 22.5955C22.8165 22.6214 22.7482 22.6337 22.6797 22.6315H22.6759ZM23.9468 21.8405C23.9229 21.8355 23.8986 21.833 23.8742 21.8329C23.8203 21.8315 23.7678 21.8499 23.7266 21.8846C23.6854 21.9194 23.6584 21.9681 23.6508 22.0215C23.6461 22.0467 23.6435 22.0722 23.6432 22.0979V22.6089H23.3934V21.9404C23.3934 21.8065 23.3934 21.7113 23.3858 21.6217H23.6027L23.6102 21.8103H23.6187C23.636 21.7514 23.6713 21.6993 23.7196 21.6614C23.768 21.6235 23.827 21.6018 23.8884 21.5991C23.908 21.5992 23.9276 21.6014 23.9468 21.6057V21.8405ZM24.7341 22.6089L24.4512 22.1733L24.3654 22.2676V22.6041H24.1165V21.1664H24.3654V22.0517C24.3894 22.0119 24.4155 21.9735 24.4437 21.9366L24.6831 21.618H24.9839L24.619 22.0215L25.0367 22.6051L24.7341 22.6089Z" fill="black"></path><path  d="M18.1002 19.3359C18.0386 19.34 17.9809 19.367 17.9384 19.4118C17.8959 19.4565 17.8719 19.5156 17.8711 19.5773H18.3048C18.3091 19.5477 18.307 19.5175 18.2987 19.4888C18.2905 19.46 18.2762 19.4333 18.2569 19.4105C18.2375 19.3877 18.2136 19.3693 18.1865 19.3564C18.1595 19.3435 18.1301 19.3366 18.1002 19.3359Z" fill="black"></path><path  d="M15.7996 16.2626L14.9838 18.9964L18.4534 18.3182L22.4149 18.48L24.08 13.8952L20.3489 14.9521L15.7996 16.2626Z" fill="black"></path></svg>