<svg width="35" height="35" viewBox="0 0 50 40" fill="none" xmlns="http://www.w3.org/2000/svg"><path  d="M25.7208 19.3102C26.2972 19.3102 26.7071 19.4379 26.9537 19.6934C27.1561 19.9001 27.2828 20.1691 27.3131 20.4568L27.3369 20.6291V21.048V21.2322C27.3065 21.5199 27.1799 21.7889 26.9774 21.9956C26.7309 22.2511 26.3209 22.3788 25.7446 22.3788C25.1683 22.3788 24.7554 22.2511 24.5088 21.9956C24.3073 21.7887 24.1816 21.5196 24.1523 21.2322V21.048V20.6291V20.445C24.1816 20.1575 24.3073 19.8885 24.5088 19.6815C24.7316 19.4409 25.1445 19.3102 25.7208 19.3102ZM27.0784 10.0596V13.4134L26.2764 18.3209H25.1802L24.3662 13.4134V10.0596H27.0784Z" fill="black"></path><path  d="M35.8433 27.0156H15.5923C14.9957 27.0151 14.4097 26.8571 13.8935 26.5578C13.3774 26.2584 12.9493 25.8282 12.6525 25.3105C12.3558 24.7929 12.2007 24.2061 12.2032 23.6095C12.2056 23.0128 12.3653 22.4273 12.6663 21.9121L22.7902 4.60804C23.0893 4.09717 23.5169 3.67347 24.0305 3.37903C24.5441 3.0846 25.1258 2.92969 25.7178 2.92969C26.3098 2.92969 26.8915 3.0846 27.4051 3.37903C27.9187 3.67347 28.3463 4.09717 28.6454 4.60804L38.7723 21.9121C39.0744 22.4274 39.2349 23.0133 39.2376 23.6106C39.2404 24.2079 39.0852 24.7953 38.7879 25.3133C38.4906 25.8314 38.0617 26.2616 37.5446 26.5606C37.0275 26.8595 36.4405 27.0165 35.8433 27.0156ZM25.7193 5.7755C25.672 5.77624 25.6251 5.78323 25.5797 5.7963C25.509 5.81417 25.4427 5.84597 25.3845 5.88984C25.3264 5.93372 25.2776 5.98877 25.241 6.05177L15.1141 23.3439C15.0613 23.4285 15.0322 23.5258 15.03 23.6255C15.0277 23.7252 15.0523 23.8237 15.1012 23.9106C15.1502 23.9975 15.2216 24.0696 15.308 24.1194C15.3944 24.1692 15.4926 24.1948 15.5923 24.1935H35.8433C35.9473 24.1969 36.0501 24.1712 36.1403 24.1193C36.2033 24.0827 36.2584 24.0339 36.3022 23.9757C36.3461 23.9176 36.3779 23.8512 36.3958 23.7806C36.4322 23.6376 36.4108 23.4861 36.3364 23.3588L26.1976 6.03989C26.1502 5.95696 26.0815 5.88824 25.9985 5.84086C25.9131 5.79419 25.8166 5.77161 25.7193 5.7755Z" fill="black"></path><g opacity="0.4"><path  d="M28.644 4.61036L26.1953 6.04297L31.0902 14.4095L33.5389 12.9769L28.644 4.61036Z" fill="black"></path></g><g opacity="0.4"><path  d="M29.5151 6.09864L27.0664 7.53125L31.0897 14.4081L33.5384 12.9754L29.5151 6.09864Z" fill="black"></path></g><g opacity="0.4"><path  d="M30.8031 8.20354L28.3633 9.65039L31.0691 14.2132L33.5089 12.7663L30.8031 8.20354Z" fill="black"></path></g><path  d="M32.1127 10.5391L29.6641 11.9717L31.0907 14.4101L33.5394 12.9775L32.1127 10.5391Z" fill="black"></path><path  d="M45.4527 9.13591C44.562 9.13591 43.6913 8.87178 42.9507 8.37693C42.2101 7.88208 41.6329 7.17873 41.292 6.35582C40.9512 5.53292 40.862 4.62741 41.0358 3.75382C41.2095 2.88023 41.6384 2.07778 42.2683 1.44795C42.8981 0.818127 43.7005 0.38921 44.5741 0.215442C45.4477 0.0416732 46.3532 0.130858 47.1761 0.471717C47.999 0.812576 48.7024 1.3898 49.1972 2.1304C49.6921 2.871 49.9562 3.7417 49.9562 4.63241C49.9554 5.82657 49.4807 6.9716 48.6363 7.816C47.7919 8.6604 46.6469 9.13512 45.4527 9.13591ZM45.4527 2.96885C45.123 2.96885 44.8007 3.06666 44.5265 3.24992C44.2524 3.43317 44.0388 3.69362 43.9128 3.99831C43.7867 4.30301 43.7539 4.63824 43.8184 4.9616C43.883 5.28496 44.042 5.5819 44.2754 5.81485C44.5087 6.0478 44.8059 6.20628 45.1294 6.27025C45.4529 6.33422 45.7881 6.30079 46.0925 6.1742C46.397 6.04761 46.6571 5.83354 46.8398 5.55909C47.0226 5.28464 47.1198 4.96214 47.1193 4.63241C47.1193 4.4137 47.0761 4.19713 46.9923 3.9951C46.9086 3.79308 46.7857 3.60956 46.631 3.45504C46.4762 3.30053 46.2924 3.17805 46.0903 3.09462C45.8881 3.0112 45.6714 2.96846 45.4527 2.96885Z" fill="black"></path><path  d="M38.3543 20.475C37.4886 20.4459 36.6331 20.2784 35.8203 19.9789L36.3699 18.4728C37.0259 18.7128 37.7156 18.8482 38.4137 18.8738L38.3543 20.475ZM39.7148 20.4156L39.5128 18.8233C40.2071 18.731 40.8827 18.5305 41.515 18.2292L42.1864 19.6967C41.4045 20.0622 40.5708 20.3047 39.7148 20.4156ZM43.3747 19.0194L42.4835 17.6975C43.0604 17.3026 43.5717 16.8194 43.9985 16.2656L45.267 17.2459C44.7336 17.9331 44.095 18.5317 43.3747 19.0194ZM45.9918 16.1022L44.5807 15.3417C44.9142 14.7267 45.1487 14.0631 45.2759 13.3752L46.8503 13.6722C46.6943 14.5221 46.4055 15.3421 45.9948 16.1022H45.9918ZM46.9899 12.3117L45.3858 12.2849C45.3858 12.2433 45.3858 12.2047 45.3858 12.1631C45.3821 11.5035 45.282 10.848 45.0887 10.2174L46.6424 9.75098C46.8778 10.5334 46.9978 11.346 46.9989 12.1631C46.9899 12.2136 46.9899 12.2612 46.9899 12.3117Z" fill="black"></path><path  d="M26.169 36.6381L26.1125 35.0369C26.8106 35.011 27.5002 34.8756 28.1563 34.6359L28.7059 36.142C27.8921 36.4415 27.0356 36.609 26.169 36.6381ZM24.8084 36.5757C23.9493 36.4676 23.1124 36.2261 22.3279 35.8598L23.0082 34.4071C23.6405 34.7085 24.3161 34.9089 25.0104 35.0013L24.8084 36.5757ZM21.1456 35.1855C20.43 34.6936 19.7964 34.0921 19.2681 33.4031L20.5396 32.4257C20.9653 32.9794 21.4756 33.4626 22.0516 33.8576L21.1456 35.1855ZM18.5285 32.2683C18.1172 31.506 17.8275 30.6841 17.6699 29.8323L19.2473 29.5353C19.3734 30.2231 19.607 30.8867 19.9395 31.5018L18.5285 32.2683ZM17.5273 28.4718V28.3262C17.527 27.509 17.6471 26.6962 17.8838 25.9141L19.4167 26.3775C19.2231 27.0091 19.123 27.6656 19.1196 28.3262V28.4421L17.5273 28.4718Z" fill="black"></path><path  d="M5.90077 13.2325L4.45703 12.5552C4.82222 11.7702 5.3084 11.0475 5.8978 10.4133L7.08605 11.5035C6.60302 12.0144 6.20307 12.5978 5.90077 13.2325ZM17.917 12.9057C17.5848 12.29 17.16 11.7289 16.6575 11.2421L17.7715 10.0895C18.3938 10.691 18.919 11.3855 19.3281 12.1482L17.917 12.9057ZM7.87625 10.7698L6.89593 9.50133C7.58122 8.97299 8.34369 8.55318 9.1566 8.25663L9.70319 9.76275C9.04699 10.0006 8.43092 10.3372 7.87625 10.7609V10.7698ZM15.8049 10.5292C15.2291 10.1365 14.5957 9.8358 13.9275 9.63798L14.3849 8.10216C15.2155 8.34972 16.0024 8.72559 16.7169 9.21615L15.8049 10.5292ZM10.7548 9.45677L10.4577 7.87936C11.3093 7.72202 12.1802 7.69796 13.0392 7.80806L12.8343 9.40033C12.1459 9.31356 11.4482 9.33562 10.7667 9.46568L10.7548 9.45677Z" fill="black"></path><path  d="M4.5035 23.0715C3.61279 23.0715 2.74209 22.8073 2.00149 22.3125C1.2609 21.8176 0.68367 21.1143 0.342811 20.2914C0.00195132 19.4685 -0.0872331 18.563 0.0865355 17.6894C0.260304 16.8158 0.689221 16.0133 1.31905 15.3835C1.94887 14.7537 2.75132 14.3248 3.62491 14.151C4.49851 13.9772 5.40401 14.0664 6.22692 14.4073C7.04983 14.7481 7.75318 15.3253 8.24803 16.0659C8.74288 16.8065 9.007 17.6772 9.007 18.568C9.00622 19.7621 8.53149 20.9071 7.68709 21.7515C6.84269 22.5959 5.69766 23.0707 4.5035 23.0715ZM4.5035 16.9044C4.17377 16.9044 3.85144 17.0022 3.57732 17.1855C3.30319 17.3687 3.08959 17.6292 2.96355 17.9339C2.8375 18.2386 2.80467 18.5738 2.86921 18.8971C2.93376 19.2205 3.09277 19.5174 3.32614 19.7504C3.55951 19.9833 3.85673 20.1418 4.1802 20.2058C4.50367 20.2698 4.83885 20.2363 5.14332 20.1097C5.44779 19.9832 5.70786 19.7691 5.89062 19.4946C6.07338 19.2202 6.17062 18.8977 6.17004 18.568C6.17004 18.3492 6.12691 18.1327 6.04312 17.9307C5.95933 17.7286 5.83653 17.5451 5.68174 17.3906C5.52695 17.2361 5.34321 17.1136 5.14103 17.0302C4.93886 16.9467 4.72222 16.904 4.5035 16.9044Z" fill="black"></path><path  d="M34.3519 39.9654C33.4371 39.9654 32.5428 39.6942 31.7822 39.1859C31.0216 38.6777 30.4287 37.9553 30.0786 37.1102C29.7286 36.265 29.637 35.335 29.8154 34.4378C29.9939 33.5406 30.4344 32.7164 31.0813 32.0696C31.7281 31.4227 32.5523 30.9822 33.4495 30.8037C34.3467 30.6253 35.2767 30.7168 36.1219 31.0669C36.9671 31.417 37.6894 32.0098 38.1977 32.7705C38.7059 33.5311 38.9772 34.4253 38.9772 35.3401C38.9764 36.5666 38.4888 37.7426 37.6216 38.6099C36.7543 39.4771 35.5783 39.9647 34.3519 39.9654ZM34.3519 33.5548C33.9993 33.5548 33.6547 33.6593 33.3616 33.8552C33.0685 34.051 32.8401 34.3294 32.7051 34.6551C32.5702 34.9808 32.5349 35.3391 32.6037 35.6849C32.6725 36.0306 32.8423 36.3482 33.0915 36.5975C33.3408 36.8468 33.6584 37.0165 34.0041 37.0853C34.3499 37.1541 34.7083 37.1188 35.034 36.9839C35.3596 36.849 35.638 36.6205 35.8339 36.3274C36.0297 36.0343 36.1343 35.6897 36.1343 35.3372C36.1343 34.8645 35.9465 34.4111 35.6122 34.0768C35.2779 33.7426 34.8246 33.5548 34.3519 33.5548Z" fill="black"></path></svg>