<svg width="30" height="30" viewBox="0 0 41 42" fill="none" xmlns="http://www.w3.org/2000/svg"><path  d="M18.4121 13.3232C18.2246 13.3258 18.0411 13.378 17.8803 13.4745C17.7194 13.5709 17.587 13.7082 17.4965 13.8725L11.5123 24.2215C11.4357 24.3523 11.3871 24.4975 11.3694 24.648C11.3533 24.7962 11.3689 24.9461 11.4152 25.0877C11.4614 25.2294 11.5373 25.3596 11.6377 25.4697C11.7382 25.5799 11.8609 25.6673 11.9978 25.7264C12.1346 25.7855 12.2825 25.8148 12.4315 25.8123H24.3927C24.58 25.8154 24.7648 25.7683 24.9278 25.6758C25.0907 25.5834 25.226 25.449 25.3194 25.2866C25.4128 25.1243 25.4611 24.9398 25.4591 24.7525C25.4572 24.5652 25.4051 24.3818 25.3083 24.2215L19.3368 13.8725C19.2453 13.7072 19.1114 13.5692 18.9489 13.4727C18.7864 13.3761 18.6011 13.3246 18.4121 13.3232ZM20.8769 24.5693H12.7575L18.4139 14.775L22.307 21.5193L24.0722 24.5693H20.8769Z" fill="black"></path><path  d="M18.0107 17.5694C17.9389 17.6414 17.8823 17.7272 17.8442 17.8215C17.8062 17.9159 17.7874 18.0169 17.7892 18.1186C17.7892 18.1845 17.8002 18.2632 17.8093 18.3419C17.8697 18.8912 17.932 19.4587 17.9924 20.017C18.0449 20.493 18.0968 20.9696 18.1481 21.4468C18.1597 21.5095 18.1929 21.5661 18.2419 21.6068C18.2909 21.6475 18.3526 21.6698 18.4163 21.6698C18.4801 21.6698 18.5418 21.6475 18.5908 21.6068C18.6398 21.5661 18.673 21.5095 18.6846 21.4468C18.7377 20.9525 18.7926 20.4582 18.8458 19.964L19.0289 18.1955C19.0545 17.9954 18.9998 17.7934 18.8769 17.6335C18.8278 17.5672 18.7651 17.5123 18.6929 17.4725C18.6207 17.4328 18.5407 17.409 18.4585 17.4029C18.3763 17.3968 18.2937 17.4086 18.2164 17.4373C18.1392 17.466 18.069 17.5111 18.0107 17.5694Z" fill="black"></path><path  d="M18.4242 21.9785C18.3219 21.9775 18.2215 22.0068 18.1359 22.0629C18.0502 22.1189 17.9832 22.1992 17.9432 22.2934C17.9033 22.3876 17.8923 22.4916 17.9116 22.5921C17.9309 22.6926 17.9796 22.7851 18.0516 22.8579C18.1236 22.9306 18.2156 22.9803 18.316 23.0007C18.4163 23.0211 18.5204 23.0112 18.6151 22.9723C18.7097 22.9334 18.7907 22.8672 18.8477 22.7822C18.9047 22.6972 18.9351 22.5971 18.9351 22.4948C18.9356 22.3587 18.8821 22.2279 18.7864 22.1312C18.6906 22.0344 18.5604 21.9795 18.4242 21.9785Z" fill="black"></path><path  d="M40.9898 9.65536L40.8286 9.6224C40.4624 6.98801 38.9975 5.19941 36.692 3.91608C34.4672 2.68035 32.224 2.68035 30.0101 3.59937C27.43 4.67033 25.8699 6.70059 25.3626 9.4851C25.3419 9.8427 25.3205 10.2009 25.2985 10.5597C25.244 10.6409 25.2148 10.7365 25.2148 10.8343C25.2148 10.9321 25.244 11.0277 25.2985 11.1089C25.3187 11.4751 25.337 11.8412 25.3571 12.1946C25.9797 16.3429 30.2024 19.3343 34.2639 18.6295C36.1299 18.3091 37.604 17.434 38.8858 16.0665C39.9589 14.979 40.6447 13.569 40.8378 12.0536L40.9989 12.0225V11.1071V10.5579V10.5487L40.9898 9.65536ZM32.0043 15.1145C31.2095 13.4669 30.2555 12.0664 28.8583 11.0009C28.7375 10.9094 28.3456 10.6915 28.5635 10.3492C28.6664 10.178 28.8194 10.0425 29.0018 9.96094C29.1842 9.87942 29.3872 9.85582 29.5835 9.89335C30.3107 9.98171 30.9862 10.3149 31.4989 10.838C31.7992 11.162 31.9603 11.1694 32.2313 10.7758C33.1139 9.52721 34.0405 8.30978 34.9781 7.09419C35.6831 6.17884 36.6664 6.59441 37.7248 6.55962C35.4927 9.17995 33.573 12.0509 32.0043 15.1145Z" fill="black"></path><path  d="M33.824 21.8008C33.0769 21.7661 32.7894 22.0333 32.5642 22.7711C30.4254 29.7882 26.1112 34.9124 19.2992 37.8324C19.0444 37.9558 18.7656 38.022 18.4824 38.0261C18.1993 38.0302 17.9187 37.9722 17.6603 37.8562C13.7069 36.2085 10.4034 33.7371 7.96982 30.1892C3.62447 23.8531 2.77298 16.6419 2.8096 9.22204C2.8096 8.68381 3.13555 8.75521 3.47431 8.76619C8.8616 8.94926 13.6501 7.27233 17.9314 4.06676C18.3379 3.76103 18.6016 3.8489 18.9715 4.06676C20.0079 4.68554 21.0864 5.23475 22.1064 5.87916C22.7784 6.30206 23.2289 6.40641 23.5201 5.49471C23.6563 5.12433 23.8655 4.78505 24.1353 4.49698C24.5126 4.07408 24.4009 3.8782 23.9284 3.67133C22.5166 3.05071 21.1103 2.37884 19.8687 1.47447C18.8176 0.711067 18.1145 0.811756 17.0634 1.56967C12.2364 5.059 6.76125 6.51259 0.837438 6.35515C0.454725 6.34782 0.00242769 6.16292 0.00242769 6.90436C-0.0360267 12.7443 0.368661 18.5312 2.19982 24.113C4.82205 32.1132 9.84493 37.9349 17.8251 41.0105C18.0139 41.0965 18.2185 41.1424 18.4259 41.1452C18.6333 41.148 18.839 41.1078 19.0301 41.027C27.9149 37.4644 33.1648 30.8189 35.5655 21.5848C34.8953 21.6782 34.3551 21.8228 33.824 21.8008Z" fill="black"></path></svg>