<svg width="33" height="33" viewBox="0 0 33 42" fill="none" xmlns="http://www.w3.org/2000/svg"><path  d="M0.0174057 16.8451C0.0174057 14.4467 0.0322895 12.0462 0.0174057 9.64774C0.0174057 9.06089 0.138603 8.69942 0.712693 8.41025C5.77958 5.85874 10.8231 3.25407 15.8942 0.706805C16.0913 0.623177 16.3031 0.580078 16.5172 0.580078C16.7313 0.580078 16.9431 0.623177 17.1402 0.706805C22.2092 3.25832 27.2548 5.85236 32.3196 8.41238C32.8405 8.67603 33.0021 8.98647 33 9.55631C32.9745 14.249 33.0106 18.9438 32.9766 23.6364C32.949 27.2723 31.4308 30.3299 29.0834 33.0069C25.7643 36.7916 21.6415 39.4537 17.0403 41.4056C16.7235 41.5364 16.3701 41.5485 16.0452 41.4396C10.9251 39.2262 6.33666 36.2707 2.92401 31.746C0.953453 29.2177 -0.0783933 26.0839 0.00464809 22.8795C0.0556784 20.8701 0.0174057 18.8566 0.0174057 16.8451ZM31.7391 17.2704C31.7391 15.0463 31.7072 12.8244 31.7561 10.6024C31.7731 9.83697 31.5669 9.41385 30.8482 9.05451C26.3122 6.7865 21.7925 4.48021 17.289 2.13565C17.0576 1.99006 16.7904 1.91104 16.517 1.90729C16.2436 1.90354 15.9744 1.9752 15.739 2.11439C11.203 4.46604 6.65134 6.79075 2.08413 9.08853C1.44625 9.40534 1.23363 9.75405 1.23363 10.4578C1.26765 14.6211 1.29316 18.7843 1.23363 22.9475C1.1743 25.8284 2.08989 28.6448 3.83192 30.9401C6.98729 35.1926 11.2738 37.9823 16.0409 40.1043C16.3948 40.2208 16.7794 40.2003 17.1189 40.0469C20.9866 38.3268 24.5141 36.0857 27.4526 33.0026C29.5788 30.7679 31.3245 28.244 31.5796 25.0865C31.7838 22.4946 31.7391 19.8729 31.7391 17.2661V17.2704Z" fill="black"></path><path  d="M16.4701 19.5437C17.9883 19.5437 19.5064 19.5713 21.0224 19.5309C21.824 19.5118 22.1791 19.7733 22.1706 20.6196C22.1437 23.4092 22.1437 26.1982 22.1706 28.9864C22.1706 29.8263 21.8177 30.0963 21.0203 30.09C17.9854 30.0659 14.9505 30.0659 11.9157 30.09C11.0651 30.09 10.8143 29.7242 10.8206 28.9333C10.8461 26.1691 10.8546 23.4263 10.8206 20.6727C10.8079 19.7712 11.18 19.5054 12.0241 19.5309C13.504 19.5777 14.9881 19.5458 16.4701 19.5437ZM15.2454 23.6984C15.5324 24.9338 15.7238 25.863 15.9853 26.7709C16.0321 26.9303 16.451 27.1515 16.553 27.0919C16.8057 26.9385 17.0008 26.7061 17.108 26.4307C17.3637 25.8095 17.5471 25.161 17.6544 24.4979C17.7097 24.0599 17.6544 23.456 17.3801 23.1732C17.2037 23.0245 16.995 22.9188 16.7706 22.8645C16.5463 22.8103 16.3123 22.809 16.0874 22.8607C15.6728 23.0053 15.3985 23.5326 15.2454 23.6984Z" fill="black"></path><path  d="M16.1968 3.5918L16.756 4.67832L8.88888 8.85855C7.58122 9.55171 6.28846 10.2746 4.95742 10.9189C4.29828 11.2378 4.05588 11.6376 4.06651 12.3796C4.10691 15.6945 4.08352 19.0114 4.08352 22.3263V23.5106H2.96724C2.92268 23.2503 2.89357 22.9876 2.88006 22.7239C2.88006 18.9859 2.8588 15.248 2.90345 11.51C2.90345 11.1124 3.17986 10.5298 3.50305 10.3554C7.68116 8.08671 11.889 5.8754 16.1968 3.5918Z" fill="black"></path><path  d="M26.832 31.3547L25.9688 30.434C26.9925 29.3234 27.7834 28.0189 28.2946 26.5975C28.8059 25.1762 29.0272 23.6669 28.9455 22.1586C28.8243 18.8799 28.92 15.5906 28.92 12.3076V11.1084H30.1192V12.5139C30.1192 16.1852 30.1192 19.858 30.1192 23.5321C30.1192 26.5557 28.8243 29.0222 26.832 31.3547Z" fill="black"></path><path  d="M20.4891 18.8409H19.2921C19.2921 17.9139 19.3048 17.006 19.2921 16.1023C19.2602 14.4226 18.0163 13.1659 16.4492 13.1957C14.9098 13.2255 13.7425 14.4523 13.7085 16.0959C13.6915 16.9719 13.7085 17.848 13.7085 18.809H12.5008C12.5008 17.6736 12.4072 16.5446 12.522 15.4368C12.7198 13.4998 14.4867 11.9944 16.4407 11.9625C18.4288 11.9285 20.268 13.4509 20.4679 15.4325C20.5848 16.5318 20.4891 17.6694 20.4891 18.8409Z" fill="black"></path><path  d="M16.8872 6.45185L15.8262 6.38594L15.941 4.55523L14.2188 3.98751L14.5504 2.97754L17.0531 3.80253L16.8872 6.45185Z" fill="black"></path><path  d="M28.3488 31.5824L25.893 31.3591L25.6484 28.814L26.7073 28.7119L26.8668 30.3789L28.4466 30.5235L28.3488 31.5824Z" fill="black"></path></svg>