<svg width="30" height="30" viewBox="0 0 34 39" fill="none" xmlns="http://www.w3.org/2000/svg"><path d="M2.00875 38.0469C1.90263 38.0467 1.7967 38.0378 1.69205 38.0201C1.18929 37.9379 0.735993 37.6692 0.422586 37.2675C0.110708 36.8681 -0.0362577 36.3643 0.0119095 35.8598C0.0540687 35.4441 0.22469 35.0518 0.500056 34.7376C0.775422 34.4233 1.14185 34.2027 1.54841 34.1063L1.59846 34.0952V20.9956C1.20235 20.917 0.840681 20.7166 0.563935 20.4225C0.0291006 19.8472 -0.129058 19.1596 0.105506 18.433C0.33472 17.7178 0.856948 17.2521 1.6145 17.0871C1.61107 16.6233 1.61145 16.1702 1.61221 15.6877V15.3405C1.06401 15.2159 0.636902 14.9286 0.339687 14.4836C0.099214 14.1244 -0.0173563 13.6965 0.00770723 13.2649C0.035213 12.6464 0.339305 11.8365 1.61221 11.4274V2.10331H2.52105V11.453C2.85493 11.5462 3.15965 11.7227 3.40658 11.966L3.64382 11.7888L4.44149 11.1928L5.40877 10.467C6.53842 9.62118 7.70627 8.74787 8.85731 7.88946C8.91882 7.84362 8.9318 7.81802 8.9318 7.74391C8.92837 6.35563 8.92837 4.94443 8.92875 3.57984V2.1037H9.83529V7.15445L15.1554 3.17451C14.8877 2.78467 14.7653 2.31322 14.8096 1.84239C14.8918 0.89306 15.6975 0.106089 16.6434 0.0510773C16.6858 0.046875 16.7282 0.046875 16.7706 0.046875C17.7493 0.046875 18.5615 0.696317 18.7456 1.62311C18.96 2.70195 18.3224 3.71164 17.2626 3.97142C17.2556 3.97293 17.2487 3.97484 17.242 3.97715C17.242 3.98326 17.242 3.9909 17.242 4.00083C17.2473 4.54369 17.2458 5.09495 17.2443 5.62826C17.2443 5.62826 17.2443 5.7505 17.2443 5.75738C18.3502 6.03779 18.9676 7.03449 18.7342 8.14733L23.7043 10.0372V2.10331H24.6277V3.77467C24.6277 5.92471 24.6277 8.14809 24.6277 10.3348C24.6271 10.3539 24.6279 10.3731 24.63 10.3921C24.6356 10.3953 24.6415 10.398 24.6475 10.4001C26.0194 10.917 27.4123 11.4465 28.7593 11.9588L29.9053 12.3943C30.0423 12.1527 30.2276 11.9419 30.4495 11.775C30.6714 11.6081 30.9254 11.4886 31.1954 11.424V2.10637H32.1066V11.424C32.6414 11.5657 33.0548 11.8614 33.3375 12.3045C33.5705 12.6701 33.6713 13.0896 33.6381 13.5503C33.5781 14.3759 32.9917 15.0498 32.1283 15.303V28.421C33.1056 28.7266 33.627 29.4055 33.6381 30.3957C33.648 31.2778 33.1797 31.868 32.1215 32.2966V34.1025C33.2626 34.5376 33.8058 35.3601 33.6152 36.3755C33.4322 37.3512 32.6219 38.0327 31.6432 38.0327C31.6153 38.0327 31.5874 38.0327 31.5595 38.0327C30.6045 37.9945 29.7751 37.2305 29.6704 36.293C29.5558 35.2577 30.1858 34.3573 31.1859 34.0944V32.302C30.5407 32.1392 30.078 31.7446 29.8106 31.1288C28.3604 31.4217 26.908 31.7146 25.4532 32.0074L24.6403 32.169V34.075C25.3199 34.2152 25.8089 34.5972 26.0954 35.2126C26.333 35.7238 26.3449 36.2548 26.1306 36.7912C25.8333 37.535 25.0876 38.0346 24.2751 38.0346C23.9956 38.0351 23.7192 37.9758 23.4644 37.8608C23.2051 37.7417 22.974 37.569 22.7864 37.3539C22.5988 37.1389 22.4589 36.8866 22.376 36.6135C22.2194 36.0913 22.2862 35.5312 22.5628 35.0193L22.4299 34.9181L21.7644 34.4134C21.6371 34.3172 21.5097 34.2208 21.3824 34.1242C20.9599 33.8037 20.5232 33.4717 20.0896 33.1528C20.0516 33.1287 20.0077 33.1155 19.9628 33.1146C19.9578 33.1141 19.9528 33.1141 19.9479 33.1146C19.3286 33.2315 18.6994 33.3571 18.0908 33.4786C17.8081 33.5349 17.5255 33.5911 17.2428 33.6471C17.2489 33.782 17.2473 33.9145 17.2462 34.0536C17.2462 34.0673 17.2462 34.0815 17.2462 34.0952L17.3027 34.1101C17.7967 34.2376 18.2219 34.5518 18.4889 34.9865C18.7575 35.4241 18.8498 35.9473 18.7472 36.4504C18.5665 37.3562 17.7321 38.0389 16.8061 38.0389C16.7295 38.039 16.6529 38.0342 16.5769 38.0247C15.4927 37.8872 14.7321 36.9741 14.8073 35.9007C14.8347 35.4838 14.9934 35.0862 15.2605 34.765C15.5277 34.4437 15.8896 34.2153 16.2946 34.1124C16.3057 34.1096 16.3166 34.1063 16.3274 34.1025C16.3274 34.0971 16.3274 34.0902 16.3274 34.0818C16.3205 34.0001 16.3202 33.9191 16.3209 33.8362L11.0555 34.8902C11.276 35.2004 11.4029 35.5674 11.421 35.9475C11.4392 36.3277 11.3478 36.7051 11.1579 37.0349C10.8056 37.6461 10.1306 38.0408 9.43875 38.0408C9.33723 38.0407 9.23589 38.0322 9.13581 38.0152C8.27319 37.8673 7.63368 37.2561 7.46636 36.4194C7.2635 35.4048 7.89232 34.3947 8.8978 34.122C8.90871 34.1192 8.91943 34.1157 8.92989 34.1116C8.93075 34.0989 8.93075 34.0862 8.92989 34.0734C8.92684 32.0002 8.92722 29.8922 8.92722 27.8533V26.6262C8.28886 26.4352 7.80942 26.0246 7.57791 25.4653C7.35442 24.9262 7.38957 24.3192 7.67418 23.7519L3.36952 20.4921C3.13009 20.715 2.84111 20.8779 2.5264 20.9673C2.5264 20.9673 2.5264 20.9673 2.5264 20.9704C2.5264 20.9734 2.5264 20.986 2.5264 20.9933C2.5264 21.012 2.52907 21.0315 2.52907 21.0487V22.9588C2.52907 26.5926 2.52907 30.3502 2.52525 34.0463C2.524 34.0732 2.52618 34.1002 2.53174 34.1265C2.55101 34.1377 2.5717 34.1462 2.59325 34.1517C3.07667 34.2988 3.48547 34.6253 3.73575 35.0643C3.98603 35.5033 4.0588 36.0214 3.93912 36.5123C3.72404 37.4009 2.91224 38.0469 2.00875 38.0469ZM1.9992 34.6469C1.72218 34.6469 1.45137 34.729 1.22105 34.8829C0.990717 35.0369 0.811212 35.2556 0.705233 35.5116C0.599255 35.7675 0.571565 36.0492 0.625666 36.3209C0.679767 36.5926 0.813227 36.8421 1.00917 37.0379C1.20511 37.2338 1.45473 37.3671 1.72645 37.421C1.99817 37.475 2.27979 37.4472 2.53568 37.341C2.79158 37.2349 3.01025 37.0553 3.16405 36.8249C3.31785 36.5945 3.39986 36.3236 3.3997 36.0466C3.39965 35.8627 3.36335 35.6806 3.29286 35.5107C3.22237 35.3408 3.11908 35.1865 2.9889 35.0565C2.85872 34.9266 2.7042 34.8236 2.53418 34.7534C2.36416 34.6833 2.18198 34.6473 1.99806 34.6476V34.4566L1.9992 34.6469ZM9.4185 34.6404C9.05159 34.6473 8.70212 34.7983 8.44546 35.0606C8.18881 35.3229 8.04553 35.6755 8.04653 36.0425C8.04754 36.4095 8.19274 36.7614 8.45082 37.0223C8.70891 37.2832 9.0592 37.4322 9.42614 37.4372H9.4357C9.80261 37.4302 10.1521 37.2793 10.4087 37.017C10.6654 36.7547 10.8087 36.402 10.8077 36.035C10.8067 35.668 10.6615 35.3161 10.4034 35.0552C10.1453 34.7943 9.795 34.6453 9.42805 34.6404H9.4185ZM24.2793 34.6404C23.9084 34.6411 23.5529 34.7885 23.2904 35.0505C23.0279 35.3125 22.8798 35.6677 22.8784 36.0386C22.8777 36.2219 22.9136 36.4034 22.9838 36.5727C23.054 36.742 23.1573 36.8956 23.2875 37.0246C23.4497 37.1875 23.6496 37.3078 23.8695 37.375C24.0893 37.4422 24.3223 37.4541 24.5479 37.4097C24.7734 37.3653 24.9845 37.266 25.1625 37.1205C25.3405 36.9751 25.4799 36.7879 25.5683 36.5757C25.6567 36.3635 25.6914 36.1328 25.6693 35.904C25.6473 35.6752 25.5691 35.4553 25.4418 35.264C25.3145 35.0726 25.1419 34.9155 24.9394 34.8068C24.7369 34.698 24.5107 34.6408 24.2808 34.6404V34.4493L24.2793 34.6404ZM16.7916 34.6404C16.6081 34.6404 16.4264 34.6765 16.2569 34.7467C16.0874 34.8169 15.9334 34.9198 15.8037 35.0495C15.674 35.1793 15.5711 35.3333 15.5009 35.5028C15.4307 35.6723 15.3945 35.854 15.3945 36.0374C15.3945 36.2209 15.4307 36.4026 15.5009 36.5721C15.5711 36.7416 15.674 36.8956 15.8037 37.0253C15.9334 37.155 16.0874 37.2579 16.2569 37.3281C16.4264 37.3984 16.6081 37.4345 16.7916 37.4345C16.9755 37.4365 17.158 37.4018 17.3283 37.3324C17.4986 37.263 17.6534 37.1603 17.7835 37.0302C17.9136 36.9002 18.0164 36.7455 18.0859 36.5752C18.1554 36.4049 18.1902 36.2225 18.1883 36.0386C18.188 35.6681 18.0408 35.3129 17.7789 35.0508C17.5171 34.7887 17.1621 34.6411 16.7916 34.6404ZM31.6474 34.6404C31.2774 34.6413 30.9226 34.788 30.6601 35.0487C30.3975 35.3095 30.2484 35.6632 30.245 36.0332C30.2436 36.2156 30.2785 36.3964 30.3476 36.5652C30.4166 36.734 30.5185 36.8874 30.6472 37.0166C30.7769 37.1485 30.9315 37.2533 31.102 37.325C31.2725 37.3966 31.4555 37.4337 31.6405 37.4341H31.6478C32.0143 37.4288 32.364 37.2796 32.6216 37.0188C32.8791 36.758 33.0238 36.4064 33.0245 36.0399C33.0252 35.6733 32.8819 35.3212 32.6253 35.0594C32.3688 34.7976 32.0196 34.6471 31.6531 34.6404H31.6474ZM22.9254 34.5437L23.7016 34.1071V32.3555L20.8017 32.9392L22.9254 34.5437ZM9.95219 34.1235C10.1161 34.1926 10.2704 34.258 10.424 34.3145C10.4865 34.3403 10.5523 34.3569 10.6196 34.3638C10.6263 34.3642 10.6331 34.3642 10.6398 34.3638C11.7343 34.1479 12.8468 33.9252 13.9222 33.7101C14.7211 33.5502 15.5201 33.3908 16.319 33.2318H16.3251C16.3253 33.2283 16.3253 33.2247 16.3251 33.2211C16.3179 32.9247 16.3179 32.6198 16.3251 32.3154C16.3255 32.3115 16.3255 32.3077 16.3251 32.3039L16.3068 32.2985C15.5175 32.0823 15.0102 31.5498 14.8398 30.7578C14.7355 30.2738 14.8146 29.8028 15.0744 29.3543L10.8198 26.1311C10.5378 26.4012 10.223 26.5712 9.88228 26.6377C9.86624 26.6411 9.85478 26.6442 9.84714 26.6465C9.84542 26.6645 9.84465 26.6826 9.84484 26.7007C9.84828 28.6987 9.84828 30.73 9.8479 32.6947V34.0795L9.95219 34.1235ZM17.2489 32.3104C17.2458 32.5495 17.2462 32.7891 17.2466 33.0408L19.384 32.6122L18.2379 31.7442C17.9685 32.0236 17.6248 32.2201 17.2473 32.3104H17.2489ZM18.7915 31.4153C19.2423 31.7565 19.7083 32.1087 20.1691 32.4506C20.1849 32.4503 20.2006 32.4485 20.2161 32.4452C20.6269 32.3635 21.0374 32.2812 21.4477 32.1985C22.1823 32.0506 22.9422 31.8974 23.6909 31.7523L23.712 31.7477C23.712 31.74 23.712 31.7297 23.712 31.7163C23.7085 30.6184 23.7055 29.1728 23.712 27.7292C23.712 27.6604 23.712 27.6592 23.6382 27.626C22.6946 27.2035 21.7373 26.7695 20.8112 26.3497L19.8027 25.8912C19.5028 25.7556 19.2029 25.6204 18.9004 25.4848L18.6643 25.3782C18.4179 26.0368 17.9384 26.4604 17.2416 26.6366C17.2439 27.2398 17.2458 27.8296 17.2416 28.4126C17.2414 28.4158 17.2414 28.419 17.2416 28.4221L17.2596 28.4271C17.9655 28.6055 18.4603 29.0628 18.6906 29.7504C18.8572 30.2471 18.8198 30.7533 18.5791 31.2537L18.7915 31.4153ZM16.7908 28.9661C16.4208 28.9668 16.0662 29.1143 15.8048 29.3762C15.5435 29.6382 15.3969 29.9932 15.3972 30.3632C15.3975 30.7332 15.5447 31.088 15.8065 31.3495C16.0682 31.6111 16.4231 31.758 16.7931 31.758C17.1631 31.758 17.518 31.6111 17.7798 31.3495C18.0415 31.088 18.1887 30.7332 18.189 30.3632C18.1893 29.9932 18.0427 29.6382 17.7814 29.3762C17.5201 29.1143 17.1654 28.9668 16.7954 28.9661H16.7908ZM31.6325 28.9642C30.8833 28.9642 30.261 29.5831 30.2457 30.3437C30.2304 31.1043 30.8497 31.7465 31.6264 31.7656H31.66C32.4034 31.7656 33.025 31.146 33.0456 30.3842C33.0502 30.2047 33.0191 30.026 32.9541 29.8586C32.8891 29.6912 32.7915 29.5383 32.667 29.4089C32.538 29.2723 32.3832 29.1627 32.2115 29.0864C32.0398 29.01 31.8547 28.9685 31.6669 28.9642H31.6325ZM24.6353 31.562L29.6608 30.5538C29.6615 30.5356 29.6634 30.5175 29.6666 30.4996C29.6838 30.4014 29.6826 30.3579 29.4798 30.2677C28.3024 29.7432 27.1089 29.2022 25.9544 28.6792L24.7591 28.1379L24.6353 28.0825V31.562ZM24.6231 27.4216C24.6361 27.4285 24.6559 27.4377 24.6682 27.443C25.7508 27.932 26.8332 28.4216 27.9154 28.9119L29.7025 29.7206C29.7185 29.7283 29.735 29.7352 29.7518 29.7424C29.9982 29.0567 30.4776 28.6143 31.1809 28.4237V15.3072C30.672 15.186 30.2316 14.8685 29.9558 14.424C29.6838 13.9961 29.5974 13.5132 29.6929 12.9528L24.6338 11.0297V19.9091C25.7734 20.303 26.2803 20.9165 26.2734 21.8846C26.2733 22.3105 26.133 22.7245 25.8742 23.0627C25.5659 23.4711 25.1484 23.729 24.6269 23.8302V24.7089C24.6269 25.5955 24.6269 26.5128 24.6231 27.4147V27.4216ZM15.4518 28.8897C15.7001 28.6686 15.9971 28.5092 16.3186 28.4244C16.324 28.1142 16.3232 27.7979 16.3228 27.4919C16.3228 27.3933 16.3228 27.2952 16.3228 27.197V26.6358C15.6627 26.4604 15.2043 26.0658 14.9533 25.4622C14.7023 24.8586 14.7462 24.2638 15.0759 23.6766L10.8519 20.4294C10.5795 20.7071 10.233 20.9006 9.85363 20.9868V22.7468C10.487 22.9084 10.989 23.3171 11.2453 23.8871C11.5017 24.4571 11.4746 25.0894 11.1861 25.6609L15.4518 28.8897ZM18.7865 24.7765C18.8026 24.791 18.8215 24.8021 18.8419 24.8093C20.0728 25.3625 21.3224 25.9279 22.5311 26.475L23.7066 27.0071C23.7066 26.7611 23.7066 26.5149 23.7066 26.2687C23.7066 25.4523 23.7066 24.608 23.7104 23.7771L23.6982 23.7733C23.4431 23.6962 23.2062 23.5685 23.0016 23.3979C22.7969 23.2272 22.6287 23.0171 22.5071 22.78L18.7475 24.286L18.7521 24.3211C18.7725 24.4542 18.7824 24.5887 18.7815 24.7234C18.7796 24.7413 18.7811 24.7595 18.7861 24.7769L18.7865 24.7765ZM9.42309 23.3034C9.05195 23.3037 8.69613 23.4514 8.43386 23.714C8.17159 23.9766 8.02434 24.3326 8.0245 24.7037C8.02465 25.0748 8.17219 25.4307 8.43467 25.6931C8.69716 25.9555 9.0531 26.1029 9.42423 26.1029C9.79537 26.1029 10.1513 25.9555 10.4138 25.6931C10.6763 25.4307 10.8238 25.0748 10.824 24.7037C10.8241 24.3326 10.6769 23.9766 10.4146 23.714C10.1523 23.4514 9.79651 23.3037 9.42538 23.3034V23.1124L9.42309 23.3034ZM16.7962 23.3034C16.4261 23.3034 16.0709 23.4496 15.8081 23.7102C15.5453 23.9708 15.3961 24.3246 15.393 24.6947C15.3925 25.0653 15.539 25.4209 15.8004 25.6836C16.0619 25.9462 16.4168 26.0944 16.7874 26.0956H16.7927C17.1591 26.0905 17.5087 25.9415 17.7662 25.681C18.0237 25.4204 18.1686 25.0691 18.1694 24.7027C18.1703 24.3363 18.0271 23.9843 17.7708 23.7226C17.5145 23.4608 17.1655 23.3102 16.7992 23.3034L16.7962 23.1124V23.3034ZM17.2443 22.7556C17.515 22.8207 17.7694 22.9406 17.992 23.1078C18.2146 23.275 18.4006 23.486 18.5386 23.7278L22.3099 22.2135V21.561L18.4992 20.065C18.2174 20.5206 17.769 20.8483 17.2492 20.9784C17.2491 20.9803 17.2491 20.9822 17.2492 20.9841C17.2431 21.2897 17.2439 21.5996 17.2447 21.901C17.2447 22.0003 17.2447 22.0993 17.2447 22.1982L17.2443 22.7556ZM8.03366 23.274C8.28172 23.029 8.59139 22.8557 8.92989 22.7724V22.5172C8.92989 22.0164 8.92684 21.4983 8.93257 20.9891C8.93298 20.9813 8.93298 20.9735 8.93257 20.9658C8.92607 20.9635 8.91691 20.9604 8.90468 20.957C8.24607 20.7717 7.77847 20.3396 7.5527 19.7074C7.34564 19.1263 7.40294 18.5529 7.7227 18.0009L3.46962 14.7288C3.21537 15.0024 2.89181 15.202 2.53327 15.3065C2.52869 15.8325 2.52869 16.367 2.52907 16.8846V17.1138C3.16667 17.3079 3.60982 17.7044 3.8482 18.2939C4.08047 18.8669 4.0438 19.4495 3.74009 20.0226L8.03366 23.274ZM24.2819 20.4699C23.9126 20.4703 23.5583 20.6162 23.2958 20.876C23.0333 21.1358 22.8837 21.4885 22.8795 21.8578C22.8798 22.2285 23.0264 22.584 23.2875 22.8471C23.5485 23.1103 23.9029 23.2597 24.2735 23.2629H24.2789C24.6487 23.2614 25.003 23.1145 25.2654 22.854C25.5278 22.5935 25.6772 22.2402 25.6813 21.8704C25.6832 21.6882 25.6489 21.5074 25.5802 21.3385C25.5115 21.1697 25.4099 21.0162 25.2813 20.8871C25.1517 20.7552 24.9971 20.6503 24.8266 20.5787C24.6561 20.5071 24.473 20.4701 24.2881 20.4699H24.2819ZM15.4533 23.2144L15.4938 23.1842C15.6093 23.0947 15.7311 23.0136 15.8583 22.9416C15.9888 22.8759 16.124 22.8199 16.2629 22.7743L16.3221 22.7529V22.3919C16.3221 21.9247 16.3221 21.4426 16.3244 20.9673H16.319C15.4117 20.727 14.8009 19.9496 14.7993 19.0335C14.7978 18.1174 15.4083 17.3346 16.3183 17.0982L16.324 17.0963V17.0905C16.3217 14.3399 16.3221 11.9068 16.324 9.64792V9.6334L16.3087 9.6292C15.8151 9.51541 15.3869 9.2102 15.1183 8.78072C14.9464 8.5189 14.8393 8.21984 14.8061 7.90837C14.7729 7.5969 14.8144 7.28199 14.9273 6.98979C15.0411 6.69219 15.2243 6.42603 15.4617 6.21342C15.699 6.00081 15.9836 5.84788 16.2919 5.76731C16.3022 5.76426 16.3129 5.76196 16.3236 5.75929C16.3213 5.45711 16.3213 5.15073 16.3209 4.85389C16.3209 4.56317 16.3209 4.2629 16.3183 3.96721C16.1101 3.87362 15.898 3.78384 15.6738 3.68872L15.542 3.63294L14.9999 4.03827C13.319 5.29475 11.5838 6.59363 9.88075 7.87647C9.86397 7.90326 9.85437 7.93391 9.85287 7.96548C9.85019 9.69567 9.84943 11.4545 9.84866 13.1557C9.84866 14.4599 9.84777 15.764 9.84599 17.068C9.84599 17.0764 9.84599 17.0829 9.84599 17.0886L9.86395 17.0928C10.3012 17.1873 10.6934 17.4273 10.9765 17.7737C11.2596 18.12 11.4167 18.5522 11.4222 18.9995C11.4249 19.3274 11.3497 19.6513 11.2029 19.9446L15.4533 23.2144ZM22.4883 20.9895C22.7512 20.4764 23.1481 20.1337 23.6699 19.9702C23.6831 19.9663 23.6958 19.9613 23.7081 19.9553C23.7106 19.937 23.7115 19.9184 23.7108 19.8999C23.707 16.5519 23.7074 13.5583 23.7108 10.7439C23.7125 10.7219 23.7101 10.6998 23.7039 10.6786C23.6863 10.6666 23.667 10.6572 23.6466 10.6507C22.386 10.1755 21.1039 9.68765 19.8646 9.21623L18.5565 8.71884C18.5435 8.71387 18.5294 8.7089 18.5153 8.70432C18.377 8.9373 18.1938 9.14049 17.9763 9.30208C17.7589 9.46367 17.5115 9.58045 17.2485 9.64563C17.2454 11.1004 17.245 12.5792 17.2443 14.0099C17.2443 15.0322 17.2435 16.0545 17.242 17.0768C17.242 17.0817 17.242 17.0859 17.242 17.0898C17.2479 17.0919 17.2539 17.0936 17.2599 17.0951C18.0981 17.3217 18.6135 17.8786 18.7498 18.7057C18.7854 18.9197 18.777 19.1305 18.7682 19.3552C18.7659 19.4117 18.7636 19.4698 18.7621 19.5286L22.4883 20.9895ZM2.00149 17.646C1.63117 17.6452 1.2757 17.7915 1.01327 18.0528C0.750835 18.3141 0.602948 18.6689 0.602138 19.0392C0.601327 19.4096 0.74766 19.765 1.00894 20.0275C1.27023 20.2899 1.62506 20.4378 1.99538 20.4386H2.00035C2.37005 20.4378 2.72448 20.291 2.98654 20.0303C3.2486 19.7695 3.39709 19.4158 3.3997 19.0461C3.40006 18.8626 3.36425 18.6807 3.29432 18.511C3.22439 18.3413 3.12172 18.1871 2.99216 18.057C2.8626 17.927 2.7087 17.8238 2.53924 17.7533C2.36979 17.6827 2.1881 17.6463 2.00455 17.646H2.00149ZM9.42538 17.638C9.05845 17.6431 8.70825 17.7923 8.45029 18.0533C8.19233 18.3143 8.04728 18.6662 8.04643 19.0332C8.04558 19.4001 8.18899 19.7527 8.44573 20.0149C8.70248 20.2771 9.05198 20.4279 9.41889 20.4348H9.4292C9.79802 20.4322 10.151 20.2846 10.4119 20.0239C10.6728 19.7632 10.8207 19.4103 10.8236 19.0415C10.826 18.8588 10.792 18.6774 10.7237 18.508C10.6553 18.3385 10.554 18.1843 10.4255 18.0544C10.2963 17.923 10.1422 17.8185 9.97233 17.747C9.80242 17.6755 9.62002 17.6385 9.4357 17.638H9.42538ZM16.7901 17.6322C16.6062 17.632 16.4241 17.668 16.2541 17.7381C16.0841 17.8082 15.9297 17.9111 15.7995 18.041C15.5365 18.3032 15.3885 18.6591 15.388 19.0304C15.3875 19.4018 15.5345 19.7581 15.7968 20.021C16.059 20.284 16.4149 20.432 16.7862 20.4325H16.7954C17.1667 20.433 17.5231 20.2861 17.7861 20.0239C18.049 19.7617 18.1971 19.4058 18.1976 19.0345C18.1982 18.6631 18.0512 18.3068 17.789 18.0438C17.5268 17.7808 17.1709 17.6328 16.7996 17.6322H16.7901ZM8.07989 17.5226L8.24301 17.4343C8.44067 17.3212 8.64548 17.221 8.85616 17.1345C8.88134 17.1266 8.90507 17.1147 8.92646 17.0993C8.92994 17.0787 8.93148 17.0579 8.93104 17.037C8.92722 14.6708 8.9276 12.2652 8.9276 9.93864V8.57901L3.76225 12.4451C4.05373 13.03 4.06787 13.6294 3.80503 14.233L8.07989 17.5226ZM1.99653 11.9806C1.62905 11.9866 1.27867 12.1369 1.02094 12.3989C0.763212 12.6609 0.618776 13.0137 0.618776 13.3813C0.618776 13.7488 0.763212 14.1016 1.02094 14.3636C1.27867 14.6256 1.62905 14.7759 1.99653 14.7819H2.00455C2.37599 14.7815 2.73205 14.6336 2.99441 14.3707C3.25677 14.1077 3.40393 13.7514 3.40352 13.3799C3.40312 13.0085 3.25518 12.6524 2.99225 12.3901C2.72932 12.1277 2.37293 11.9805 2.00149 11.9809L1.99653 11.9806ZM31.6378 11.9687C31.2672 11.9699 30.9122 12.1182 30.651 12.3811C30.3897 12.644 30.2436 12.9999 30.2448 13.3706C30.2459 13.7412 30.3943 14.0962 30.6572 14.3574C30.9201 14.6187 31.276 14.7648 31.6466 14.7636H31.6554C31.8406 14.7631 32.0238 14.7256 32.1943 14.6534C32.3649 14.5813 32.5193 14.4759 32.6487 14.3434C32.7765 14.214 32.8774 14.0606 32.9454 13.8919C33.0134 13.7232 33.0472 13.5427 33.0448 13.3608C33.0403 12.9914 32.891 12.6385 32.6289 12.3781C32.3668 12.1176 32.013 11.9705 31.6436 11.9683L31.6378 11.9687ZM16.7908 6.30062C16.4239 6.30668 16.0741 6.45668 15.8168 6.71827C15.5595 6.97986 15.4153 7.33209 15.4153 7.69902C15.4153 8.06595 15.5595 8.41818 15.8168 8.67977C16.0741 8.94136 16.4239 9.09136 16.7908 9.09742H16.795C17.1649 9.09571 17.5191 8.94786 17.7805 8.68609C18.0418 8.42432 18.1891 8.06987 18.1902 7.69998C18.1914 7.5164 18.1563 7.3344 18.0868 7.16448C18.0174 6.99456 17.9149 6.84008 17.7854 6.70997C17.6559 6.57986 17.5019 6.4767 17.3323 6.40644C17.1627 6.33618 16.9809 6.30021 16.7973 6.30062H16.7908ZM16.7881 0.634811C16.421 0.641265 16.071 0.791762 15.8138 1.05385C15.5565 1.31594 15.4126 1.66862 15.413 2.03586C15.4134 2.4031 15.5581 2.75547 15.8159 3.017C16.0737 3.27852 16.424 3.42825 16.7912 3.43391H16.7977C17.1649 3.42741 17.5148 3.27686 17.772 3.01474C18.0292 2.75261 18.1731 2.39991 18.1727 2.03267C18.1722 1.66543 18.0274 1.31308 17.7696 1.05158C17.5117 0.790092 17.1615 0.64041 16.7943 0.634811H16.7881Z" fill="black"></path><path  d="M22.8093 34.97L21.8753 34.2617C21.3179 33.8392 20.7628 33.4136 20.1993 32.9991C20.1148 32.9402 20.0116 32.9144 19.9094 32.9265C19.0043 33.0977 18.1016 33.2822 17.197 33.4614C17.0965 33.4812 17.0404 33.5156 17.0465 33.634C17.0564 33.83 17.0491 34.0275 17.0491 34.243L17.2493 34.2957C18.1773 34.5379 18.7446 35.459 18.5543 36.414C18.3771 37.3038 17.4889 37.949 16.5964 37.8359C15.6166 37.7114 14.9255 36.8832 14.9919 35.9147C15.0149 35.5375 15.1575 35.1774 15.399 34.8867C15.6406 34.5961 15.9685 34.39 16.3351 34.2984C16.4738 34.2632 16.5223 34.2063 16.5109 34.0692C16.4994 33.932 16.5082 33.7792 16.5082 33.605L10.7221 34.7621C10.7572 34.8118 10.782 34.8515 10.8114 34.8878C11.2947 35.4819 11.365 36.2883 10.9895 36.9401C10.6197 37.5823 9.86708 37.9479 9.16492 37.8271C8.38253 37.6923 7.80262 37.1395 7.65134 36.3823C7.46911 35.4716 8.03336 34.5543 8.94526 34.3068C9.0866 34.2686 9.12022 34.2105 9.11984 34.0749C9.11653 31.6068 9.11577 29.1386 9.11755 26.6705C9.11755 26.57 9.1313 26.4879 8.98651 26.4451C7.77091 26.0875 7.27657 24.8757 7.88323 23.7637C7.89201 23.7472 7.89774 23.7289 7.91264 23.6937L3.35203 20.2414C3.08691 20.5134 2.78663 20.7059 2.42409 20.7965C2.38589 20.8056 2.35495 20.8729 2.33852 20.9164C2.33039 20.9602 2.32935 21.0049 2.33546 21.049C2.33546 25.3812 2.33419 29.7132 2.33164 34.0451C2.33164 34.2086 2.36526 34.2823 2.53564 34.3339C2.97258 34.4665 3.34209 34.7615 3.56813 35.1582C3.79418 35.555 3.85958 36.0233 3.75086 36.4667C3.52891 37.3836 2.63573 37.9853 1.72078 37.8325C1.30655 37.7687 0.927482 37.5625 0.648711 37.2496C0.36994 36.9366 0.208873 36.5363 0.193187 36.1175C0.177501 35.6987 0.308174 35.2874 0.562754 34.9545C0.817334 34.6215 1.17992 34.3877 1.58822 34.293C1.65011 34.2785 1.71238 34.2655 1.78688 34.2491V20.8366C1.36359 20.7739 0.992263 20.6055 0.701161 20.2922C0.219809 19.7738 0.0677636 19.1626 0.283226 18.491C0.496013 17.8274 0.968578 17.4213 1.6524 17.2731C1.7418 17.2536 1.80254 17.2429 1.80177 17.1264C1.79681 16.4842 1.79948 15.8424 1.79948 15.1822C1.2528 15.094 0.806217 14.8415 0.496013 14.3777C0.278122 14.0529 0.172775 13.6656 0.196124 13.2752C0.234326 12.4397 0.769161 11.8617 1.80063 11.571V2.29464H2.32744V11.6011C2.75378 11.6982 3.10219 11.8953 3.38145 12.2208C3.78066 11.9228 4.16727 11.6344 4.55388 11.3452C6.02391 10.2439 7.49547 9.14345 8.96856 8.04373C9.0185 8.01205 9.05903 7.96754 9.0859 7.91486C9.11278 7.86218 9.12503 7.80325 9.12137 7.74422C9.11704 6.00804 9.11602 4.27149 9.11831 2.53455V2.29502H9.64283V7.53487L15.4187 3.21455C15.0966 2.81113 14.9537 2.36455 14.9984 1.85875C15.0718 1.00225 15.7942 0.291681 16.6534 0.241636C17.5783 0.18777 18.3832 0.787931 18.5566 1.66048C18.7476 2.63235 18.1746 3.55073 17.2153 3.78606C17.0774 3.82006 17.0476 3.87507 17.0488 4.00305C17.0545 4.58182 17.0522 5.16058 17.0507 5.73973C17.0507 5.84097 17.0545 5.90821 17.1867 5.94106C18.2208 6.19893 18.7801 7.13604 18.5299 8.17323C18.5241 8.1973 18.523 8.22251 18.5161 8.26988L23.8927 10.3145V2.29464H24.4341V2.53035C24.4341 5.13219 24.4341 7.73403 24.4341 10.3359C24.4341 10.4524 24.4455 10.5299 24.5777 10.5796C26.3541 11.2492 28.1293 11.9225 29.9031 12.5998C29.9264 12.6089 29.9517 12.6135 29.9941 12.6253C30.2821 12.0523 30.7428 11.6986 31.3831 11.5786V2.29769H31.9122V11.5759C32.4531 11.6852 32.8806 11.9484 33.1729 12.4076C33.3922 12.7514 33.4735 13.1311 33.4441 13.5369C33.3872 14.3242 32.8023 14.9568 31.934 15.1559V28.5649C32.8715 28.8121 33.4323 29.3913 33.4437 30.3987C33.4533 31.2426 32.9876 31.7667 31.9271 32.1674V34.2384C33.0617 34.6273 33.603 35.3894 33.4243 36.3422C33.2527 37.2556 32.4803 37.8783 31.5638 37.842C30.7019 37.808 29.9505 37.112 29.8569 36.2719C29.7484 35.3016 30.3658 34.4382 31.3735 34.2472V32.1636C31.336 32.149 31.2978 32.1362 31.2589 32.1254C30.6538 31.9806 30.2275 31.6189 29.9834 31.0512C29.9379 30.9465 29.8905 30.9194 29.7855 30.9408C28.0064 31.2968 26.2315 31.654 24.4467 32.0131V34.2357C25.1167 34.332 25.6283 34.6678 25.9198 35.2939C26.1371 35.7611 26.1413 36.2433 25.9507 36.7204C25.5733 37.6644 24.4631 38.1022 23.5401 37.6869C22.6324 37.2797 22.0961 36.0935 22.8093 34.97ZM31.3693 28.5722V15.154C30.8265 15.0531 30.4063 14.7819 30.1144 14.3219C29.8225 13.862 29.7897 13.3585 29.9092 12.832L24.4402 10.753V20.0473C25.5977 20.4152 26.0863 20.9642 26.0798 21.8833C26.0801 22.2681 25.9533 22.6423 25.7192 22.9477C25.4002 23.3702 24.967 23.5971 24.4432 23.6666C24.439 23.709 24.4337 23.74 24.4333 23.7705C24.4333 24.9854 24.4352 26.2006 24.4295 27.4154C24.4295 27.5419 24.4963 27.5744 24.5869 27.6156C26.2655 28.3738 27.9435 29.133 29.6208 29.8932C29.7003 29.9292 29.782 29.959 29.8695 29.9945C30.0861 29.2075 30.5854 28.7372 31.3693 28.5722ZM16.5086 22.8858C16.5086 22.2363 16.5063 21.5869 16.5109 20.9374C16.5109 20.8228 16.4509 20.8045 16.3634 20.7812C15.5321 20.5608 14.9881 19.8666 14.9858 19.0315C14.9835 18.1964 15.5321 17.4969 16.3611 17.2815C16.4811 17.2501 16.5101 17.2012 16.5097 17.0905C16.5079 14.6096 16.5079 12.1287 16.5097 9.64785C16.5097 9.52331 16.4715 9.47364 16.3485 9.44385C15.9044 9.33913 15.5196 9.06313 15.2781 8.67598C14.6088 7.63878 15.1409 6.27686 16.3409 5.95023C16.4238 5.92769 16.5151 5.9338 16.5139 5.79742C16.5086 5.17396 16.5139 4.55049 16.5078 3.92741C16.5041 3.9021 16.4947 3.87797 16.4802 3.8569C16.4657 3.83583 16.4465 3.81839 16.4242 3.80593C16.1331 3.67413 15.8377 3.5515 15.5123 3.41282C15.5275 3.40136 15.5447 3.39258 15.5123 3.41282C13.5937 4.84898 11.6758 6.28667 9.75859 7.72588C9.69823 7.77134 9.65888 7.88328 9.65849 7.96426C9.65366 10.9988 9.65136 14.0331 9.65162 17.0671C9.65162 17.1978 9.68218 17.2486 9.82047 17.2788C10.2149 17.3659 10.5684 17.5834 10.824 17.8963C11.0795 18.2091 11.222 18.599 11.2286 19.0029C11.234 19.3604 11.1301 19.6875 10.9578 19.9992L15.4473 23.4527C15.6223 23.3301 15.7743 23.2021 15.9439 23.1089C16.1136 23.0157 16.3095 22.9648 16.5105 22.8858H16.5086ZM22.5828 21.2327C22.8143 20.6903 23.1841 20.3224 23.7246 20.1528C23.8744 20.1058 23.9 20.0382 23.8996 19.9002C23.8963 16.8484 23.8963 13.7965 23.8996 10.7446C23.8996 10.5918 23.8549 10.5261 23.7117 10.4723C22.0139 9.83249 20.3174 9.18827 18.6219 8.53959C18.5585 8.51553 18.4928 8.49833 18.4225 8.47618C18.1433 9.00643 17.723 9.3365 17.15 9.47212C17.1068 9.48243 17.056 9.58061 17.056 9.63791C17.0512 12.1175 17.049 14.5971 17.0495 17.0767C17.0495 17.1989 17.0839 17.2459 17.2092 17.2799C17.9599 17.4828 18.4317 17.9676 18.5616 18.7374C18.609 19.0239 18.5692 19.3249 18.5692 19.6569L22.5828 21.2327ZM10.7977 25.8774C10.5303 26.17 10.2201 26.3771 9.84263 26.4504C9.67721 26.4825 9.65162 26.5521 9.65162 26.701C9.65569 29.1491 9.65671 31.5971 9.65468 34.0451V34.2067C9.91178 34.3133 10.1311 34.4111 10.3561 34.4932C10.4565 34.5314 10.5754 34.5696 10.6743 34.549C12.5684 34.1757 14.4605 33.793 16.3539 33.417C16.4826 33.3914 16.5166 33.3357 16.5135 33.2134C16.5062 32.9147 16.5062 32.6158 16.5135 32.3168C16.5166 32.1949 16.4792 32.1453 16.3546 32.1109C15.6337 31.9138 15.1807 31.4431 15.024 30.7146C14.9163 30.2141 15.0282 29.7431 15.3266 29.3045L10.7977 25.8774ZM18.3343 31.3109C18.9161 31.7506 19.4922 32.1896 20.0729 32.6194C20.1137 32.6496 20.194 32.6446 20.2513 32.6331C21.4092 32.4039 22.566 32.1648 23.725 31.9401C23.8755 31.9111 23.9019 31.8507 23.9015 31.7163C23.8974 30.3876 23.8974 29.0589 23.9015 27.7302C23.9015 27.5774 23.8492 27.5121 23.7151 27.4517C22.4349 26.8787 21.1582 26.2976 19.8803 25.7192C19.4429 25.5214 19.0047 25.325 18.5597 25.1244C18.5455 25.151 18.5328 25.1783 18.5215 25.2062C18.3075 25.8724 17.8571 26.2896 17.1813 26.4566C17.0625 26.4863 17.0491 26.541 17.0495 26.6395C17.0518 27.2305 17.0537 27.8219 17.0495 28.4129C17.0495 28.5374 17.0877 28.5833 17.2115 28.6146C17.8583 28.7777 18.2972 29.1823 18.5081 29.8134C18.6781 30.328 18.6044 30.8277 18.3343 31.3109ZM9.11908 8.19845L3.51172 12.3912C3.88037 13.0234 3.88992 13.648 3.56253 14.291L8.05781 17.7487C8.37222 17.5863 8.63696 17.4228 8.92233 17.3132C9.07514 17.2536 9.11946 17.1928 9.11946 17.037C9.11487 14.1695 9.11373 11.3021 9.11602 8.43492L9.11908 8.19845ZM7.973 17.9538L3.44181 14.4686C3.18786 14.7922 2.83653 15.0256 2.43976 15.1341C2.41428 15.1451 2.39188 15.1622 2.3745 15.1838C2.35713 15.2055 2.3453 15.231 2.34005 15.2583C2.33355 15.9249 2.33546 16.5919 2.33546 17.2608C2.96733 17.4163 3.42691 17.7689 3.66835 18.3687C3.90979 18.9685 3.82116 19.5358 3.48841 20.0771L8.04979 23.5295C8.32026 23.2353 8.63085 23.0328 9.00905 22.9515C9.12175 22.927 9.11831 22.8525 9.11793 22.7662C9.11793 22.1748 9.11335 21.5819 9.12022 20.9921C9.12022 20.8607 9.08393 20.8106 8.95251 20.7736C8.35655 20.6062 7.93709 20.2276 7.73003 19.6439C7.52298 19.0602 7.61161 18.4913 7.973 17.9538ZM9.66002 22.8991C11.0204 23.1505 11.6336 24.5571 10.9364 25.7124L15.4618 29.1376C15.7239 28.8679 16.0579 28.6791 16.4242 28.5936C16.4624 28.5844 16.5063 28.4904 16.5074 28.4354C16.5143 28.0225 16.5113 27.6091 16.5113 27.1958V26.4867C15.8553 26.3496 15.3797 25.997 15.1276 25.3896C14.8754 24.7821 14.9648 24.1858 15.3254 23.63L10.826 20.1692C10.5108 20.5489 10.1173 20.7495 9.66002 20.8305V22.8991ZM18.539 24.1598C18.5589 24.3627 18.5941 24.5388 18.5883 24.7141C18.5841 24.8585 18.6334 24.9231 18.761 24.9816C20.4103 25.7227 22.058 26.4671 23.704 27.2149C23.7602 27.2401 23.8186 27.2599 23.8763 27.2825C23.8844 27.2671 23.8906 27.2508 23.8946 27.234C23.8946 26.0711 23.8946 24.9082 23.8996 23.7457C23.8996 23.6311 23.8381 23.6158 23.7541 23.5891C23.516 23.5175 23.2954 23.3973 23.1062 23.2361C22.917 23.0748 22.7634 22.8761 22.655 22.6523C22.6359 22.6141 22.6114 22.5786 22.5874 22.5377L18.539 24.1598ZM17.0491 22.9049C17.6986 23.0279 18.157 23.3866 18.4481 23.9646L22.4976 22.3414V21.431L18.4137 19.8265C18.1261 20.3476 17.7104 20.6735 17.1427 20.8053C17.1003 20.8148 17.0537 20.9157 17.0526 20.9749C17.0446 21.3817 17.0484 21.7886 17.0484 22.1974L17.0491 22.9049ZM29.8611 30.7066C29.8565 30.6302 29.8435 30.5794 29.8519 30.5312C29.8955 30.2856 29.7652 30.1851 29.5551 30.0915C27.9785 29.389 26.408 28.6734 24.8352 27.9625C24.7103 27.9056 24.5838 27.8513 24.4417 27.7891V31.7934L29.8611 30.7066ZM31.6371 37.6231C31.9511 37.6237 32.2582 37.5311 32.5196 37.3571C32.781 37.1832 32.985 36.9356 33.1058 36.6458C33.2265 36.3559 33.2586 36.0368 33.1981 35.7287C33.1375 35.4206 32.9869 35.1374 32.7654 34.9148C32.544 34.6923 32.2615 34.5404 31.9537 34.4783C31.6459 34.4162 31.3266 34.4468 31.0361 34.5662C30.7457 34.6855 30.4972 34.8883 30.322 35.1489C30.1468 35.4094 30.0527 35.7161 30.0517 36.0301C30.0506 36.239 30.0908 36.446 30.17 36.6393C30.2492 36.8325 30.3658 37.0083 30.5132 37.1563C30.6605 37.3044 30.8357 37.4218 31.0285 37.5019C31.2214 37.582 31.4283 37.6232 31.6371 37.6231ZM0.411586 36.05C0.412418 36.3642 0.506405 36.6711 0.681663 36.9319C0.856921 37.1927 1.10558 37.3957 1.3962 37.5152C1.68681 37.6347 2.00634 37.6654 2.31437 37.6033C2.6224 37.5412 2.9051 37.3891 3.12673 37.1664C3.34836 36.9436 3.49897 36.6602 3.5595 36.3518C3.62003 36.0435 3.58778 35.7241 3.46682 35.4341C3.34585 35.1441 3.14161 34.8965 2.87992 34.7225C2.61823 34.5486 2.31083 34.4562 1.99661 34.4569C1.78792 34.4574 1.58139 34.499 1.38879 34.5794C1.19618 34.6597 1.0213 34.7772 0.874109 34.9251C0.726921 35.073 0.610317 35.2485 0.530956 35.4415C0.451596 35.6345 0.411033 35.8413 0.411586 36.05ZM24.2862 20.2792C23.9723 20.2784 23.6651 20.3707 23.4036 20.5443C23.1421 20.7181 22.9379 20.9654 22.8169 21.2551C22.696 21.5448 22.6636 21.8639 22.7239 22.172C22.7842 22.4801 22.9346 22.7634 23.1559 22.9861C23.3772 23.2087 23.6595 23.3608 23.9672 23.4231C24.2749 23.4853 24.5942 23.4549 24.8847 23.3358C25.1751 23.2166 25.4237 23.014 25.5991 22.7536C25.7744 22.4932 25.8686 22.1866 25.8697 21.8726C25.8709 21.4514 25.7048 21.0469 25.4079 20.7481C25.1109 20.4493 24.7075 20.2806 24.2862 20.2792ZM24.2767 37.627C24.5909 37.6266 24.8979 37.5331 25.1589 37.3582C25.4199 37.1834 25.6233 36.9351 25.7432 36.6447C25.8632 36.3543 25.8944 36.0349 25.8328 35.7268C25.7713 35.4187 25.6197 35.1358 25.3974 34.9138C25.1751 34.6918 24.892 34.5407 24.5838 34.4796C24.2756 34.4185 23.9562 34.4501 23.666 34.5705C23.3758 34.6909 23.1278 34.8946 22.9534 35.1559C22.7789 35.4172 22.6858 35.7243 22.6859 36.0385C22.6859 36.2473 22.727 36.4541 22.807 36.647C22.8869 36.8399 23.0041 37.0151 23.1519 37.1626C23.2996 37.3102 23.475 37.4271 23.668 37.5068C23.861 37.5865 24.0679 37.6273 24.2767 37.627ZM0.411586 13.3856C0.412949 13.6998 0.507474 14.0066 0.683205 14.2672C0.858937 14.5277 1.10798 14.7303 1.39884 14.8492C1.68971 14.9682 2.00932 14.9983 2.31727 14.9356C2.62521 14.8729 2.90766 14.7204 3.12888 14.4972C3.3501 14.274 3.50017 13.9902 3.5601 13.6817C3.62002 13.3732 3.58712 13.0538 3.46556 12.7641C3.34399 12.4743 3.13921 12.227 2.87713 12.0536C2.61504 11.8802 2.30742 11.7884 1.99317 11.7899C1.5721 11.7926 1.16926 11.962 0.872841 12.2611C0.57642 12.5602 0.410567 12.9645 0.411586 13.3856ZM18.3774 30.3628C18.3763 30.0485 18.282 29.7416 18.1065 29.4809C17.931 29.2202 17.6821 29.0174 17.3914 28.8982C17.1006 28.7789 16.781 28.7485 16.473 28.8108C16.165 28.8732 15.8823 29.0255 15.6608 29.2484C15.4393 29.4713 15.2889 29.7549 15.2286 30.0634C15.1682 30.3718 15.2007 30.6912 15.3219 30.9812C15.443 31.2711 15.6474 31.5187 15.9092 31.6925C16.1711 31.8663 16.4785 31.9586 16.7928 31.9577C17.0016 31.9572 17.2083 31.9155 17.401 31.835C17.5936 31.7545 17.7686 31.6368 17.9157 31.4887C18.0629 31.3406 18.1794 31.1649 18.2587 30.9717C18.3379 30.7785 18.3783 30.5716 18.3774 30.3628ZM18.3774 24.7042C18.3792 24.3897 18.2876 24.0817 18.1142 23.8193C17.9408 23.5569 17.6935 23.3519 17.4035 23.2301C17.1135 23.1084 16.7939 23.0754 16.4851 23.1354C16.1764 23.1954 15.8924 23.3456 15.6691 23.5671C15.4458 23.7886 15.2932 24.0713 15.2307 24.3796C15.1682 24.6878 15.1986 25.0077 15.318 25.2986C15.4373 25.5896 15.6404 25.8386 15.9013 26.0141C16.1623 26.1897 16.4695 26.2838 16.784 26.2846C16.9925 26.2859 17.1993 26.2461 17.3923 26.1673C17.5854 26.0885 17.761 25.9723 17.9091 25.8255C18.0571 25.6786 18.1747 25.504 18.2551 25.3115C18.3355 25.1191 18.377 24.9127 18.3774 24.7042ZM31.654 14.9549C31.9681 14.9523 32.2744 14.8565 32.5341 14.6798C32.7939 14.503 32.9954 14.2533 33.1131 13.962C33.2309 13.6708 33.2597 13.3511 33.1958 13.0435C33.1319 12.7359 32.9783 12.4542 32.7542 12.2339C32.5302 12.0136 32.2459 11.8647 31.9373 11.806C31.6287 11.7473 31.3096 11.7815 31.0203 11.9041C30.7311 12.0268 30.4848 12.2325 30.3124 12.4951C30.1401 12.7578 30.0495 13.0657 30.0521 13.3798C30.0536 13.5885 30.0962 13.7949 30.1775 13.9871C30.2589 14.1793 30.3773 14.3535 30.5261 14.4998C30.6749 14.6462 30.8512 14.7617 31.0447 14.8398C31.2382 14.9179 31.4453 14.957 31.654 14.9549ZM9.4331 17.4473C9.11852 17.445 8.81034 17.5361 8.54758 17.7091C8.28483 17.8821 8.0793 18.1291 7.95703 18.419C7.83476 18.7088 7.80124 19.0285 7.86072 19.3374C7.9202 19.6463 8.07 19.9306 8.29116 20.1543C8.51232 20.3781 8.79489 20.5311 9.10309 20.5942C9.4113 20.6572 9.73128 20.6274 10.0225 20.5085C10.3138 20.3896 10.5632 20.1869 10.7392 19.9262C10.9152 19.6654 11.0099 19.3583 11.0112 19.0437C11.0127 18.6231 10.8474 18.2189 10.5517 17.9198C10.256 17.6206 9.85377 17.4507 9.4331 17.4473ZM33.2332 30.3887C33.2565 29.5231 32.5513 28.7953 31.6669 28.7724C30.8036 28.7506 30.0678 29.4631 30.0502 30.3387C30.0326 31.2059 30.7379 31.9336 31.6165 31.955C32.4845 31.9764 33.2103 31.2727 33.2332 30.3887ZM18.3774 7.70105C18.3721 7.28381 18.2028 6.88543 17.9062 6.59193C17.6096 6.29843 17.2094 6.13336 16.7922 6.13235C16.3749 6.13135 15.974 6.2945 15.676 6.58657C15.378 6.87864 15.2068 7.2762 15.1994 7.69341C15.1956 7.90412 15.2339 8.11348 15.3118 8.30929C15.3897 8.50509 15.5058 8.68344 15.6534 8.83396C15.8009 8.98447 15.9768 9.10414 16.171 9.186C16.3652 9.26786 16.5738 9.31028 16.7845 9.31079C16.9953 9.3113 17.204 9.26988 17.3986 9.18895C17.5932 9.10803 17.7698 8.9892 17.918 8.8394C18.0662 8.6896 18.1832 8.51181 18.2621 8.31638C18.3409 8.12095 18.3802 7.91178 18.3774 7.70105ZM0.411204 19.0338C0.409314 19.3484 0.500816 19.6564 0.67412 19.9189C0.847424 20.1814 1.09474 20.3866 1.38473 20.5085C1.67473 20.6303 1.99437 20.6634 2.30317 20.6035C2.61197 20.5435 2.89604 20.3933 3.1194 20.1718C3.34277 19.9503 3.49538 19.6676 3.55791 19.3593C3.62044 19.051 3.59007 18.7311 3.47066 18.4401C3.35125 18.149 3.14816 17.9 2.88711 17.7245C2.62607 17.549 2.31881 17.4549 2.00425 17.4541C1.79587 17.4531 1.58934 17.4931 1.39646 17.572C1.20357 17.6508 1.02813 17.7669 0.88017 17.9136C0.732207 18.0604 0.614626 18.2348 0.534156 18.427C0.453685 18.6192 0.411904 18.8254 0.411204 19.0338ZM9.4331 37.6292C9.85067 37.6208 10.2481 37.4483 10.5395 37.1491C10.831 36.8499 10.9929 36.4481 10.9904 36.0304C10.9879 35.6128 10.8211 35.2129 10.5261 34.9172C10.2311 34.6216 9.83164 34.4539 9.414 34.4504C9.20335 34.4487 8.99444 34.4888 8.79944 34.5685C8.60444 34.6482 8.42722 34.7659 8.27809 34.9147C8.12896 35.0635 8.0109 35.2404 7.93075 35.4352C7.85061 35.6301 7.80999 35.8389 7.81126 36.0495C7.81252 36.2602 7.85565 36.4685 7.93813 36.6623C8.0206 36.8562 8.14079 37.0317 8.2917 37.1787C8.4426 37.3257 8.62122 37.4412 8.81717 37.5185C9.01311 37.5959 9.22248 37.6335 9.4331 37.6292ZM18.3774 2.03066C18.3764 1.71624 18.2821 1.40921 18.1065 1.14841C17.9309 0.887603 17.6818 0.68475 17.3909 0.565513C17.1 0.446277 16.7802 0.416017 16.4721 0.478562C16.164 0.541107 15.8813 0.693646 15.6599 0.916879C15.4385 1.14011 15.2883 1.424 15.2282 1.73264C15.1682 2.04127 15.2011 2.36077 15.3227 2.65071C15.4443 2.94066 15.6492 3.18801 15.9114 3.36148C16.1737 3.53495 16.4815 3.62674 16.7959 3.62523C17.2167 3.6225 17.6194 3.45321 17.9158 3.15439C18.2122 2.85557 18.3782 2.45154 18.3774 2.03066ZM18.3774 19.0388C18.3784 18.7245 18.2861 18.417 18.1122 18.1552C17.9384 17.8934 17.6909 17.689 17.4009 17.5678C17.1109 17.4467 16.7915 17.4142 16.4831 17.4745C16.1747 17.5349 15.8911 17.6853 15.6681 17.9068C15.4452 18.1283 15.2929 18.4109 15.2306 18.719C15.1682 19.027 15.1986 19.3466 15.3179 19.6373C15.4372 19.9281 15.64 20.177 15.9007 20.3525C16.1614 20.528 16.4682 20.6223 16.7825 20.6234C16.9914 20.6247 17.1986 20.5847 17.392 20.5057C17.5854 20.4266 17.7613 20.3101 17.9096 20.1628C18.0578 20.0156 18.1754 19.8404 18.2557 19.6475C18.336 19.4546 18.3774 19.2477 18.3774 19.0388ZM16.7913 37.6247C17.2125 37.6244 17.6163 37.4569 17.9139 37.1588C18.2116 36.8608 18.3787 36.4568 18.3784 36.0356C18.3781 35.6144 18.2106 35.2106 17.9126 34.913C17.6146 34.6153 17.2106 34.4483 16.7894 34.4485C16.3682 34.4488 15.9644 34.6163 15.6667 34.9143C15.3691 35.2123 15.202 35.6164 15.2022 36.0375C15.2025 36.4587 15.3701 36.8626 15.6681 37.1602C15.9661 37.4578 16.3701 37.6249 16.7913 37.6247ZM11.0124 24.6969C11.0123 24.3822 10.9188 24.0746 10.7438 23.8131C10.5688 23.5515 10.3201 23.3478 10.0292 23.2277C9.73829 23.1076 9.41829 23.0765 9.10972 23.1384C8.80116 23.2003 8.5179 23.3524 8.29582 23.5754C8.07374 23.7983 7.92283 24.0822 7.8622 24.391C7.80157 24.6999 7.83395 25.0197 7.95525 25.3101C8.07654 25.6005 8.28128 25.8484 8.54355 26.0224C8.80581 26.1963 9.11381 26.2885 9.42852 26.2873C9.84928 26.2859 10.2523 26.1177 10.5492 25.8195C10.8461 25.5214 11.0127 25.1177 11.0124 24.6969ZM23.8901 32.1224L20.3456 32.8345L22.9075 34.7732L23.8901 34.2204V32.1224ZM18.2086 31.4878C17.9152 31.8316 17.5614 32.0517 17.1298 32.1418C17.1107 32.1491 17.0937 32.161 17.0803 32.1765C17.067 32.192 17.0577 32.2105 17.0533 32.2305C17.048 32.5712 17.0499 32.912 17.0499 33.2749L19.8322 32.7172L18.2086 31.4878Z" fill="black"></path></svg>