<svg width="65" height="58" viewBox="0 0 85 58" fill="none" xmlns="http://www.w3.org/2000/svg"><path fill-rule="evenodd" clip-rule="evenodd" d="M49.363 48.5773C45.0247 52.7625 40.0315 55.7264 34.0393 56.8606C25.8699 58.4062 18.4762 56.6145 11.8086 51.7153C6.07716 47.5041 2.24724 41.9992 0.596568 35.0428C0.247001 33.5737 -0.0223026 32.0841 0.00145949 30.5612L0.00156178 30.5602L0.00133763 30.5612V27.3111L0.00145949 27.3111C0.133471 22.8866 1.32897 18.7319 3.51508 14.9216C8.27066 6.63598 15.3618 1.52766 24.8724 0.267744C31.7835 -0.647888 38.3376 0.784701 44.285 4.56921C44.4157 4.65268 44.5468 4.73581 44.6779 4.81896C45.8734 5.57742 47.0713 6.33737 48.0621 7.3705C48.7053 8.04111 49.2539 8.77827 49.2502 9.76202C49.2502 9.84676 49.2546 9.93376 49.259 10.0214C49.2814 10.467 49.3046 10.9283 48.7565 11.1877C48.6704 11.2284 48.5844 11.2707 48.4983 11.3131C47.7845 11.6645 47.0658 12.0183 46.2831 11.4227C45.7459 11.0136 45.2228 10.586 44.6996 10.1583L44.6994 10.1582L44.6991 10.1579C44.3602 9.88087 44.0212 9.60378 43.6783 9.33166C39.2797 5.83916 34.2072 4.16895 28.6543 4.20327C16.2801 4.2772 6.95425 12.6642 4.87585 23.6063C3.47759 30.9647 4.7919 37.8509 9.50629 43.8242C13.7571 49.2102 19.4146 52.2491 26.2163 53.065C32.263 53.7895 37.7647 52.2423 42.7109 48.735C43.4398 48.2191 44.1188 47.6318 44.7977 47.0446L44.798 47.0443C45.2448 46.6578 45.6916 46.2713 46.1527 45.9052C47.0757 45.1749 48.4344 45.3143 49.2412 46.1639C49.4564 46.3909 49.426 46.6525 49.3956 46.913C49.3836 47.0163 49.3716 47.1193 49.3748 47.22C49.3745 47.2216 49.3742 47.2232 49.3738 47.2248C49.3741 47.2242 49.3744 47.2236 49.3747 47.223C49.3705 47.6743 49.3666 48.1255 49.3631 48.5764C49.3632 48.5766 49.3632 48.5769 49.3632 48.5771C49.3632 48.5772 49.3632 48.5772 49.3631 48.5772C49.3631 48.5773 49.3631 48.5774 49.3631 48.5775C49.3631 48.5774 49.3631 48.5773 49.363 48.5773Z" fill="#D05A38"></path><path d="M35.8837 27.9588C35.8837 28.6967 36.0985 29.3156 36.528 29.8154C36.9614 30.3113 37.4944 30.5593 38.127 30.5593C38.7634 30.5593 39.2964 30.3113 39.7259 29.8154C40.1554 29.3195 40.3702 28.7007 40.3702 27.9588C40.3702 27.213 40.1554 26.5921 39.7259 26.0962C39.2964 25.5964 38.7634 25.3466 38.127 25.3466C37.4944 25.3466 36.9614 25.5964 36.528 26.0962C36.0985 26.5921 35.8837 27.213 35.8837 27.9588ZM33.7986 27.9588C33.7986 27.3301 33.906 26.7425 34.1208 26.1958C34.3394 25.6453 34.6596 25.1533 35.0813 24.7199C35.4796 24.306 35.9423 23.9897 36.4694 23.771C36.9966 23.5485 37.5491 23.4372 38.127 23.4372C38.7048 23.4372 39.2574 23.5485 39.7845 23.771C40.3155 23.9936 40.786 24.3138 41.196 24.7316C41.6099 25.1494 41.9223 25.6335 42.1331 26.1841C42.3479 26.7308 42.4553 27.3223 42.4553 27.9588C42.4553 28.4898 42.3811 28.9896 42.2327 29.4582C42.0843 29.9267 41.8637 30.3543 41.5709 30.7408C41.157 31.2914 40.6474 31.7189 40.0422 32.0235C39.4409 32.3281 38.8025 32.4804 38.127 32.4804C37.553 32.4804 37.0024 32.3691 36.4753 32.1465C35.9521 31.9239 35.4874 31.6038 35.0813 31.186C34.6596 30.7525 34.3394 30.2645 34.1208 29.7217C33.906 29.1751 33.7986 28.5874 33.7986 27.9588ZM46.7601 32.5272H46.6196L42.6134 23.7125H44.7571L46.7601 28.357L48.7808 23.7125H50.7663L46.7601 32.5272ZM51.4516 32.2051V23.7125H56.6819V25.4637H53.4195V26.9982H56.2133V28.7377H53.4195V30.4187H56.7287V32.2051H51.4516ZM58.2808 32.2051V23.4372H58.4741L63.763 28.3922V23.7125H65.6313V32.5272H65.4556L60.1492 27.5722V32.2051H58.2808ZM69.5848 30.3836H70.0299C70.9163 30.3836 71.6094 30.1688 72.1092 29.7393C72.609 29.3098 72.8589 28.7163 72.8589 27.9588C72.8589 27.2013 72.609 26.6058 72.1092 26.1724C71.6094 25.739 70.9163 25.5223 70.0299 25.5223H69.5848V30.3836ZM67.5817 32.2051V23.7125H69.8367C71.4219 23.7125 72.6636 24.0912 73.5617 24.8487C74.4598 25.6062 74.9088 26.6429 74.9088 27.9588C74.9088 28.7475 74.7311 29.4484 74.3758 30.0614C74.0205 30.6705 73.4992 31.1723 72.812 31.5667C72.4215 31.7931 71.9959 31.9571 71.5352 32.0587C71.0783 32.1563 70.5122 32.2051 69.8367 32.2051H67.5817ZM78.177 29.505H80.4085L79.3074 26.8459L78.177 29.505ZM75.0025 32.2051L79.3308 23.4489H79.4597L83.6943 32.2051H81.5741L81.0352 30.9693H77.5913L77.0407 32.2051H75.0025Z" fill="#D05A38"></path></svg>